<svg width="206" height="46" viewBox="0 0 206 46" fill="none" xmlns="http://www.w3.org/2000/svg">
<g clip-path="url(#clip0_237_309)">
<path d="M59.4 2L33.4 17.7L7.4 2V12.7L24.5 23L7.4 33.3V44L33.4 28.3L59.4 44V33.3L42.3 23L59.4 12.7V2ZM33.4 34.4C30.2 34.4 27.6 37 27.6 40.1C27.6 43.3 30.2 45.9 33.3 45.9C36.4 45.9 39.1 43.3 39.1 40.2C39.1 37 36.6 34.4 33.4 34.4C33.4 34.3 33.4 34.3 33.4 34.4ZM66.8 23C66.8 26.2 64.2 28.7 61 28.7C57.8 28.7 55.3 26.1 55.3 22.9C55.3 19.7 57.9 17.2 61 17.2C64.3 17.2 66.8 19.8 66.8 23ZM33.4 0C30.2 0 27.6 2.6 27.6 5.7C27.6 8.9 30.2 11.5 33.3 11.5C36.4 11.5 39.1 8.9 39.1 5.8C39.1 2.6 36.6 0 33.4 0ZM11.5 23C11.5 26.2 8.9 28.7 5.7 28.7C2.5 28.6 0 26 0 22.9C0 19.7 2.6 17.2 5.7 17.2C8.9 17.2 11.5 19.8 11.5 23ZM139.1 29.8H133.6V44.6H130.5V29.8H125V26.9H139.1V29.8ZM100.8 29.2C102.1 29.2 103.5 29.5 104.7 29.9V27C103.4 26.6 102.1 26.4 100.8 26.4C95.4 26.4 91.3 30 91.2 35.2V35.8C91.3 41 95.4 44.6 100.8 44.6C102.1 44.6 103.5 44.4 104.7 44V41C103.4 41.4 102.1 41.7 100.8 41.7C96.9 41.7 94.2 39 94.3 35.6V35.4C94.3 31.9 96.9 29.2 100.8 29.2ZM165.1 37L162.6 30.4L160 37H165.1ZM171.2 44.6H168L166.1 39.8H158.9L157 44.7H153.8L161 26.9H164L171.2 44.6ZM185.6 26.8V39.2L176 26.9H173.3V44.6H176.2V31.7L186.2 44.6H188.5V26.9L185.6 26.8ZM144.4 26.8V41.6H152.5L151.1 44.5H141.3V26.9L144.4 26.8ZM197 41.8H194.4V29.8H197C200.2 29.7 202.9 32.2 203 35.4V35.8C203.1 39 200.6 41.7 197.3 41.8H197ZM197 26.9H191.4V44.6H197C201.9 44.6 205.9 40.6 205.9 35.7C205.9 30.8 201.9 26.9 197 26.9ZM80.2 27.7C81.4 26.9 82.7 26.5 84.1 26.5C85.6 26.5 87.1 26.8 88.5 27.4V30.2H88.4C87.1 29.6 85.7 29.2 84.2 29.2C82.7 29.2 81 29.7 81 31.3C81 32.4 81.9 33.1 84.8 34C87.7 34.9 89.6 36.3 89.6 39.3C89.6 42.5 86.7 44.5 83.6 44.5C81.8 44.5 80.1 44 78.5 43.2V40.2H78.6C80.1 41.2 81.8 41.7 83.6 41.7C85.1 41.7 86.8 41 86.8 39.3C86.8 37.6 85.1 37 83 36.3C80.6 35.6 78.3 34.2 78.3 31.3C78.4 29.9 79.1 28.6 80.2 27.7ZM115.3 41.8C112 41.8 109.3 39.1 109.3 35.8V35.5C108.9 32.2 111.3 29.2 114.6 28.9C117.9 28.5 120.9 30.9 121.2 34.2V35.5C121.4 38.8 118.8 41.6 115.5 41.8H115.3ZM115.3 26.4C110.3 26.4 106.2 30.4 106.1 35.4C106.1 40.4 110.1 44.5 115.1 44.6C120.1 44.7 124.2 40.6 124.3 35.6V35.5C124.4 30.5 120.4 26.5 115.3 26.4C115.4 26.4 115.4 26.4 115.3 26.4ZM173.7 4.4V8.6H181.1V11.5H173.7V19.2H170.7V1.5H181.9V4.4H173.7ZM97.8 11.6L100.4 5L102.9 11.6H97.8ZM101.8 1.4H98.8L91.7 19.2H94.9L96.8 14.4H104L105.9 19.2H109.1L101.8 1.4ZM88.1 14C88.1 12.6 86.9 11.5 85.5 11.5H81.6V16.5H84.7C86.9 16.5 88.1 15.5 88.1 14ZM81.7 8.8H85C86.3 8.9 87.5 7.9 87.6 6.6V6.4C87.6 4.9 86.3 4.2 84.9 4.2H81.7V8.8ZM91.1 14.1C91.1 17.7 88.3 19.2 84.8 19.2H78.6V1.5H85C88 1.5 90.4 3.1 90.4 6.3C90.4 7.7 89.7 9.1 88.4 9.8C90.1 10.6 91.1 12.3 91.1 14.1ZM139.4 1.5L132 9.8V1.5H129V19.2H132V10.7L139.5 19.2H143.5L135.4 10.1L143.2 1.4L139.4 1.5ZM165 10.1C165.3 6.8 162.9 3.9 159.6 3.5C156.3 3.2 153.4 5.6 153 8.9V10.1C152.7 13.4 155.1 16.3 158.4 16.7C161.7 17 164.6 14.6 165 11.3V10.1ZM168.1 10.1C168.1 15.1 164.1 19.1 159.1 19.1C154.1 19.1 150.1 15.1 150.1 10.1C150.1 5.1 154.1 1.1 159.1 1.1C164.1 1.1 168.1 5.1 168.1 10.1ZM123.3 1.5V13.8L113.7 1.5H111V19.2H114V6.3L124 19.2H126.3V1.5H123.3Z" fill="#05286A"/>
</g>
<defs>
<clipPath id="clip0_237_309">
<rect width="205.9" height="45.9" fill="white"/>
</clipPath>
</defs>
</svg>
