<svg width="292" height="191" viewBox="0 0 292 191" fill="none" xmlns="http://www.w3.org/2000/svg">
<g clip-path="url(#clip0_235_329)">
<path d="M275.695 107.459L271.896 103.657L202.635 112.161V99.6168L235.783 95.5423V60.8484L285.904 53.9764V19.4843L270.235 3.80164L266.436 0L253.017 1.64644V5.70171L249.42 2.08994L233.181 4.08643V9.24823L232.439 8.50659C230.092 6.16153 226.771 5.01644 222.308 5.01644C220.762 5.02544 219.218 5.13444 217.685 5.34276C211.535 6.13335 206.878 8.30931 203.779 11.8306L200.115 8.15802L186.24 9.84895V17.4137L183.308 14.4797L179.509 10.6796L159.536 13.1374L157.256 21.7819L153.838 18.3377C152.624 17.2165 151.194 16.3549 149.635 15.8058C148.077 15.2567 146.423 15.0316 144.774 15.1443C143.273 15.1724 141.775 15.2903 140.287 15.4973L126.16 17.2268L107.053 19.5792L105.09 25.5895L103.756 24.2545L99.9648 20.4544L94.2982 21.1545L82.6983 22.5799V29.8821L79.9961 27.1781L76.1972 23.3764L56.2404 25.8476L53.4716 36.4886L53.0921 36.1282L49.2932 32.3354C46.1182 29.1241 41.0653 27.5652 33.8483 27.5652C31.0113 27.5652 26.0117 28.1926 23.3244 28.5308C8.3183 30.4072 0.0459492 38.2211 0.0415025 50.5545L0 171.511L15.6731 187.198L19.4721 191L135.444 176.772L171.214 188.777V172.382L282.803 158.697V147.218C285.219 141.387 291.06 126.236 291.118 126.087L292.007 123.784L275.695 107.459Z" fill="black"/>
<path d="M215.161 45.67L191.755 48.5431V56.7798L199.208 55.8631V77.1897L207.462 76.1751V54.85L215.162 53.9037L215.161 45.67Z" fill="white"/>
<path d="M92.1327 78.5469L95.3047 64.2629L95.5863 64.2021L98.4766 77.7681L92.1327 78.5469ZM101.059 89.2428L111.752 87.9315L103.334 59.423L87.8046 61.323L79.8657 91.8533L89.3283 90.6904L90.6801 84.8448L99.91 83.7042H99.8106L101.059 89.2428Z" fill="white"/>
<path d="M189.453 69.7288C189.453 64.0271 186.646 61.8452 178.646 61.6405C173.146 61.5144 172.523 60.4198 172.523 59.0181C172.523 57.7677 173.413 56.8362 176.269 56.4757C176.837 56.3981 177.409 56.356 177.982 56.3497C179.881 56.3497 180.922 57.0068 180.799 59.2079L188.992 58.1593C189.345 51.7426 186.459 49.7046 180.806 49.7046C179.196 49.7228 177.589 49.8407 175.993 50.0576C167.021 51.1982 163.04 54.9643 163.04 60.5102C163.04 65.5845 165.225 68.3138 174.157 68.4013C179.227 68.4665 180.124 69.4841 180.124 71.1646C180.124 72.6049 179.235 73.5023 175.946 73.9131C175.433 73.9784 174.54 74.1074 174.13 74.1074C170.79 74.1074 170.712 72.1302 170.783 70.9926L162.571 72.0576C161.884 78.8391 165.272 80.8489 171.02 80.8489C172.824 80.7949 174.623 80.6414 176.41 80.3891C185.848 79.2025 189.438 75.4483 189.438 69.7466" fill="white"/>
<path d="M80.6796 161.207C90.1184 160.02 93.7084 156.266 93.7084 150.564C93.7084 144.863 90.901 142.681 82.9014 142.479C77.4009 142.35 76.7783 141.258 76.7783 139.852C76.7783 138.602 77.6677 137.67 80.5239 137.313C81.0918 137.234 81.6641 137.191 82.2374 137.184C84.1361 137.184 85.1781 137.841 85.0536 140.042L93.2474 139.013C93.6002 132.596 90.7172 130.558 85.061 130.558C83.451 130.576 81.8437 130.694 80.2482 130.911C71.2763 132.052 67.295 135.822 67.295 141.364C67.295 146.438 69.4798 149.172 78.4118 149.255C83.4825 149.32 84.3792 150.337 84.3792 152.018C84.3792 153.463 83.4899 154.356 80.2008 154.77C79.6879 154.835 78.7956 154.959 78.3851 154.959C75.0456 154.959 74.967 152.987 75.0382 151.845L66.8488 152.883C66.1611 159.664 69.5495 161.671 75.2976 161.671C77.1012 161.619 78.9005 161.466 80.687 161.211" fill="white"/>
<path d="M262.216 138.556V129.684C264.321 124.678 270.782 107.953 270.782 107.953L261.38 109.094C261 110.663 260.07 114.092 258.979 118.883C258.541 120.678 258.089 122.155 257.654 123.778L257.274 123.834C256.712 122.005 255.082 116.992 252.887 110.127L243.188 111.344C243.188 111.344 249.421 125.537 251.785 130.942V139.83L262.216 138.556Z" fill="white"/>
<path d="M255.627 35.0202L265.29 33.8336V4.27631L257.043 5.2879V16.6453L257.525 21.2939L257.281 21.3251L248.275 6.36624L237.203 7.72641V37.2792L245.465 36.2646V22.4346L245.074 17.9714L245.317 17.9402L255.627 35.0202Z" fill="white"/>
<path d="M137.425 35.526L135.082 35.8152V27.1128L136.98 26.8814L139.555 26.5655C140.11 26.4862 140.67 26.4416 141.23 26.432C142.902 26.432 144.561 26.9941 144.561 29.8302C144.561 34.6464 141.647 35.0038 137.424 35.5319M153.522 28.0176C153.522 20.6858 149.298 19.2336 144.976 19.2336C143.504 19.2719 142.037 19.3987 140.581 19.6134L126.823 21.2865V50.8482L135.08 49.8336V42.7317C146.001 41.3864 153.525 40.4504 153.525 28.0102" fill="white"/>
<path d="M98.708 158.645L122.194 155.76V148.679L106.963 150.55V145.145L121.586 143.35V137.203L106.963 138.998V134.993L122.194 133.123V126.206L98.708 129.091V158.645Z" fill="white"/>
<path d="M233.241 112.56L224.987 113.574V143.129L246.22 140.521V133.39L233.24 135.043L233.241 112.56Z" fill="white"/>
<path d="M112.417 52.6148L120.672 51.6002V22.046L110.112 23.3423L104.741 39.8542L104.315 39.9076L103.168 36.0347L98.7804 24.7381L86.6973 26.2214V55.7742L94.9518 54.7596V41.0319L94.565 36.7556L94.8036 36.7245L101.493 53.9631L105.643 53.4543L112.45 34.5589L112.731 34.5248L112.413 39.9224L112.417 52.6148Z" fill="white"/>
<path d="M63.8145 46.7543L66.9864 32.4659L67.271 32.4051L70.1584 45.9949L63.8145 46.7543ZM72.7479 57.4695L83.42 56.1583L75.029 27.6497L59.4745 29.5498L51.5371 60.0741L60.9953 58.9187L62.3515 53.0538L71.5769 51.9161H71.4895L72.7479 57.4695Z" fill="white"/>
<path d="M167.132 34.0085L170.307 19.7201L170.589 19.6593L173.479 33.2298L167.132 34.0085ZM176.082 44.7964L186.782 43.4807L178.365 14.9722L162.791 16.8722L154.852 47.404L164.303 46.2634L165.659 40.2917L174.889 39.1511H174.806L176.082 44.7964Z" fill="white"/>
<path d="M170.761 137.925L174.069 123.641L177.108 137.147L170.761 137.925ZM179.706 148.694L190.402 147.378L181.984 118.87L166.412 120.768L158.469 151.284L167.893 150.143L169.302 144.21L178.532 143.069H178.445L179.706 148.694Z" fill="white"/>
<path d="M134.747 119.424L144.418 118.238V88.6851L136.168 89.6996V101.054L136.65 105.652L136.407 105.679L127.401 90.778L116.329 92.1381V121.692L124.591 120.673V106.845L124.204 102.382L124.442 102.35L134.747 119.424Z" fill="white"/>
<path d="M148.823 83.3735L158.495 82.1868V52.634L150.245 53.6486V65.0031L150.727 69.6012L150.488 69.6309L141.478 54.7299L130.405 56.0901V85.6444L138.667 84.6253V70.8012L138.28 66.3351L138.519 66.3083L148.823 83.3735Z" fill="white"/>
<path d="M4.03472 135.503L49.1109 129.953V119.858L17.0324 123.825L17.2977 104.314L4.03027 105.924C4.08363 109.565 4.46309 111.195 4.03027 135.067L4.03472 135.503Z" fill="white"/>
<path d="M36.5223 49.4406C36.1087 51.7218 33.1042 54.2108 27.866 54.8768C27.3413 54.942 26.4875 55.0399 25.6901 55.1274L24.0344 55.3173C19.2913 55.9106 16.2171 53.5374 16.2171 49.3842C16.2171 44.3514 19.275 41.7438 26.1348 40.9295L26.5142 40.8835C27.5962 40.7545 30.4644 40.4089 31.038 40.4089C31.8612 40.3129 32.6953 40.3864 33.4891 40.6249C34.2828 40.8634 35.0195 41.2619 35.6537 41.7958C35.8968 42.0817 36.0778 42.4153 36.185 42.7751C36.2921 43.1349 36.3232 43.5132 36.2762 43.8857L49.2443 42.2051C49.3669 39.7166 48.5368 37.275 46.9231 35.3776C44.5145 32.8427 40.302 31.6101 34.0573 31.6101C31.456 31.6101 26.4223 32.2449 24.0033 32.549C14.8876 33.6897 4.03467 37.7939 4.03467 50.8245C4.03467 60.669 8.97199 65.4555 19.1149 65.4555C20.5245 65.4555 23.3734 65.0758 25.2573 64.8474L25.8991 64.7673C37.2945 63.327 48.9641 60.1795 49.2443 47.7838L36.5223 49.4406Z" fill="white"/>
<path d="M26.1704 76.058L30.9135 86.6663L20.658 87.9286L26.1704 76.058ZM17.0546 96.2038C17.3022 95.6609 17.4993 95.1996 17.6209 94.946L33.4259 93.0029L35.3928 97.3044L48.2394 95.7262L36.8943 67.5736L16.8457 70.0373L2.5332 101.351L15.4479 99.7741C17.3051 95.6461 17.028 96.2661 17.0546 96.2008" fill="white"/>
<path d="M34.1419 137.024L28.4442 148.742C28.376 148.882 26.8908 151.828 26.1126 153.752C25.327 151.996 24.0123 149.415 23.9471 149.293C23.9471 149.293 20.1481 141.85 18.7592 139.171L18.6377 138.933L4.08958 140.713L4.02881 170.243L14.1969 169.056V156.521C14.1969 156.492 13.9583 154.066 13.8175 152.094C14.6416 153.874 15.7696 155.929 15.8304 156.039L22.5538 168.396L29.4135 167.552L37.01 153.108C37.01 153.086 37.7392 151.398 38.3959 149.688C38.3232 150.656 38.2699 151.616 38.218 152.614L38.1646 153.546V166.124L49.1198 164.774L49.065 135.221L34.1419 137.024Z" fill="white"/>
<path d="M62.614 163.073V133.526L53.9341 134.594V164.151L62.614 163.073Z" fill="white"/>
<path d="M62.614 128.281V98.7239L53.9341 99.7918V129.346L62.614 128.281Z" fill="white"/>
<path d="M110.813 122.348V92.7937L102.133 93.8617V123.416L110.813 122.348Z" fill="white"/>
<path d="M124.06 86.426V56.8688L115.38 57.9367V87.491L124.06 86.426Z" fill="white"/>
<path d="M198.938 41.9842V12.4299L190.258 13.4949V43.0521L198.938 41.9842Z" fill="white"/>
<path d="M140.957 137.561C139.081 137.782 136.908 138.093 135.602 138.249V130.715C137.319 130.511 139.705 130.183 140.464 130.088C140.945 130.022 141.43 129.986 141.915 129.981C143.833 129.981 144.718 130.76 144.718 133.311C144.79 133.845 144.746 134.388 144.589 134.903C144.432 135.418 144.166 135.894 143.81 136.297C143.453 136.7 143.013 137.022 142.521 137.24C142.029 137.458 141.496 137.567 140.957 137.561ZM149.144 152.45C151.4 152.16 154.963 151.735 154.963 151.735C153.315 142.586 152.635 140.84 148.278 140.475C148.298 140.297 148.32 140.266 148.324 140.171C151.785 139.031 154.056 135.683 154.056 131.215C154.056 125.893 150.847 123.502 145.369 123.502C144.444 123.505 143.52 123.568 142.603 123.689L127.348 125.589V155.146L135.605 154.108V144.091C135.605 144.091 138.705 143.712 139.518 143.62C140.197 143.529 140.88 143.477 141.565 143.464C142.674 143.464 143.59 143.844 143.937 145.59C144.253 147.178 144.59 148.954 144.88 150.336C145.259 152.236 146.265 152.594 147.307 152.594C147.922 152.58 148.536 152.53 149.145 152.445" fill="white"/>
<path d="M232.419 18.8762C232.319 11.5013 228.598 9.08655 222.513 9.08655C221.128 9.09784 219.745 9.19693 218.373 9.3832C208.11 10.7078 203.219 16.0342 203.219 26.3459C203.219 35.7811 207.196 40.4475 215.652 40.4475C216.48 40.4475 217.353 40.4015 218.265 40.314C231.673 39.0027 232.949 30.1758 232.319 21.8294C228.209 22.3841 217.885 23.6805 217.885 23.6805V28.8883C217.885 28.8883 222.348 28.3098 224.179 28.0829C223.948 31.2986 221.14 32.7893 218.216 33.1646C217.877 33.2089 217.536 33.2316 217.195 33.2328C213.821 33.2328 212.329 30.7112 212.329 25.2231C212.329 18.845 214.552 16.7388 218.216 16.2671C218.669 16.2059 219.127 16.1742 219.584 16.1722C222.445 16.1722 223.634 17.6095 223.383 20.0494L232.447 18.8895" fill="white"/>
<path d="M202.162 122.183C203.871 121.971 205.614 121.78 207.172 121.59C207.584 121.533 207.998 121.502 208.414 121.498C210.025 121.498 210.728 122.114 210.728 123.802C210.728 126.185 209.588 127.302 207.058 127.658C205.575 127.845 203.954 128.016 202.166 128.24L202.162 122.183ZM207.218 138.571C205.774 138.753 204.077 138.981 202.178 139.179V133.097C203.997 132.873 205.65 132.676 207.116 132.489C207.54 132.432 207.968 132.402 208.396 132.399C210.175 132.399 210.941 133.099 210.941 134.965C210.941 137.385 209.886 138.228 207.196 138.56M193.901 146.923L210.557 144.894C217.502 144.02 220.472 141.119 220.472 135.733C220.472 131.172 218.573 129.348 214.573 129.348H213.919V129.082C218.625 128.007 220.118 125.932 220.118 121.734C220.118 116.94 217.648 115.12 213.105 115.12C212.124 115.144 211.145 115.228 210.173 115.371L193.897 117.37L193.901 146.923Z" fill="white"/>
<path d="M77.4898 73.1374C77.3904 65.7626 73.6686 63.3478 67.5869 63.3478C66.1987 63.3587 64.8124 63.4577 63.4367 63.6444C53.1811 64.9601 48.2734 70.2851 48.2734 80.6013C48.2734 90.0319 52.2503 94.7027 60.7064 94.7027C61.535 94.7027 62.408 94.6568 63.3196 94.5663C76.7279 93.2551 78.0041 84.4281 77.3741 76.0847C73.2639 76.6394 62.9401 77.9358 62.9401 77.9358V83.1258C62.9401 83.1258 67.4032 82.5473 69.2382 82.3204C69.0025 85.5361 66.1996 87.0268 63.2707 87.4021C62.932 87.4463 62.5909 87.4691 62.2494 87.4703C58.8758 87.4703 57.3833 84.9487 57.3833 79.4606C57.3833 73.0825 59.6066 70.9733 63.2707 70.5046C63.7242 70.4434 64.1812 70.4117 64.6388 70.4097C67.4995 70.4097 68.6882 71.847 68.4377 74.2869C72.3242 73.793 75.1078 73.4281 77.5016 73.127" fill="white"/>
<path d="M178.023 98.1305C173.913 98.6853 163.589 99.9817 163.589 99.9817V105.173C163.589 105.173 168.052 104.595 169.883 104.368C169.652 107.583 166.844 109.074 163.92 109.449C163.58 109.494 163.237 109.517 162.894 109.518C159.537 109.518 158.018 106.996 158.018 101.498C158.018 95.1195 160.241 93.0103 163.905 92.5386C164.359 92.4805 164.816 92.4503 165.273 92.4481C168.134 92.4481 169.323 93.8854 169.072 96.3254C172.959 95.8315 175.742 95.4666 178.132 95.1655C178.037 87.7906 174.315 85.3759 168.229 85.3759C166.844 85.387 165.461 85.4861 164.089 85.6725C153.833 86.9882 148.926 92.3087 148.926 102.629C148.926 112.06 152.9 116.731 161.359 116.731C162.187 116.731 163.058 116.686 163.972 116.597C177.38 115.286 178.646 106.456 178.026 98.1128" fill="white"/>
<path d="M82.8064 119.736C80.6068 110.688 79.2772 105.703 77.1991 96.9514L66.5107 98.2626L74.9506 126.771L90.437 124.871L98.3788 94.3408L88.9206 95.5037C87.6177 101.13 85.1557 110.865 83.1132 119.66C83.0203 119.69 82.9251 119.712 82.8286 119.726" fill="white"/>
<path d="M80.0156 44.6184L80.072 44.8127L80.1713 44.8008L80.149 44.5991L80.0156 44.6184Z" fill="black"/>
<path d="M79.9814 44.6229L80.0037 44.8201L80.0719 44.8127L80.0155 44.6184L79.9814 44.6229Z" fill="#DFDFDF"/>
<path d="M81.7661 50.5175L81.778 50.6124L81.8091 50.7147L81.9381 50.6999L81.9158 50.4982L81.7661 50.5175Z" fill="black"/>
<path d="M81.7927 50.7192H81.8075L81.7764 50.6168L81.7927 50.7192Z" fill="#DFDFDF"/>
</g>
<defs>
<clipPath id="clip0_235_329">
<rect width="292" height="191" fill="white"/>
</clipPath>
</defs>
</svg>
