<svg width="292" height="124" viewBox="0 0 292 124" fill="none" xmlns="http://www.w3.org/2000/svg">
<path d="M119.201 29.1136C119.201 29.1136 120.334 27.4152 121.277 26.0943C122.976 23.8297 125.996 20.6216 128.45 18.5458C129.205 17.9797 129.96 17.2248 129.96 17.2248C129.96 17.2248 128.639 17.4135 127.884 17.6022C126.185 17.9797 123.542 19.6781 122.221 20.8103C120.145 22.6974 117.691 25.5281 118.824 28.3588C119.012 28.5475 119.201 29.1136 119.201 29.1136ZM131.092 32.3217C134.49 32.133 137.698 31.1895 140.53 29.4911C143.361 27.7927 147.702 24.7733 147.325 20.999C147.136 19.8668 146.381 18.9232 145.437 18.5458C144.116 17.9797 143.55 18.1684 141.851 18.5458C140.718 18.9232 140.152 19.1119 139.02 19.6781C135.622 21.5652 130.904 25.7168 128.45 28.9249C127.884 29.6798 127.317 30.6233 126.751 31.1895C126.374 31.5669 126.185 31.9443 126.185 31.9443C126.374 32.3217 129.771 32.3217 131.092 32.3217ZM122.41 38.5492C122.032 38.9266 121.655 39.8702 121.277 40.4363C121.089 40.8138 120.711 41.1912 120.522 41.3799C119.579 41.946 118.824 42.1347 118.069 41.3799C116.936 40.2476 116.181 38.7379 116.181 37.0395V34.9637C115.992 34.0201 115.049 32.8879 114.482 31.9443C113.916 30.812 113.35 28.9249 113.35 27.6039C113.161 23.641 115.237 20.0555 117.88 17.2248C120.522 14.3941 124.109 11.9409 127.884 10.4312C131.47 8.9215 136.755 7.78923 140.718 9.29892C142.04 9.67634 143.738 10.8086 144.682 11.9409C144.871 12.1296 145.06 12.507 145.248 12.507C145.437 12.6957 145.815 12.6957 146.192 12.6957C147.513 12.8844 149.212 13.828 149.967 14.5828C151.477 15.9038 152.232 17.0361 152.61 18.9232C153.365 22.5087 151.288 26.4717 149.023 28.9249C145.06 33.0766 140.907 35.9073 135.811 37.9831C133.546 38.9266 129.96 39.6815 127.506 39.4928C126.751 39.4928 125.807 39.3041 125.052 39.1154C124.675 39.1154 123.165 38.7379 122.976 38.5492C122.787 38.7379 122.599 38.5492 122.41 38.5492ZM127.129 46.4751C127.317 46.4751 127.506 46.6638 127.695 46.6638C129.582 47.4187 130.337 49.1171 130.715 50.8155C131.847 55.1558 132.225 64.5914 132.413 68.1769C132.602 71.0076 132.602 73.6496 132.791 76.4803C132.98 78.7448 132.98 81.9529 132.602 84.0287C132.414 84.7836 131.847 85.7271 131.092 86.2933C130.149 86.8594 128.261 86.8594 127.129 86.6707C124.486 86.1046 123.542 84.4062 123.165 81.7642C122.221 75.5367 122.787 63.2704 123.165 57.9865C123.354 56.2881 123.92 50.8155 124.864 48.5509C125.241 47.9848 125.996 46.2864 127.129 46.4751ZM45.4002 55.9107C45.4002 55.9107 41.4365 56.0994 38.794 56.4768C35.3965 56.8543 28.979 57.9865 25.204 59.3075C24.0715 59.6849 21.8066 60.6285 21.6178 61.7608C21.4291 62.893 22.1841 63.8366 22.939 64.7801C23.5053 65.3463 26.1478 67.9882 26.9028 68.5544C30.1115 71.1963 36.529 75.348 41.2477 77.2351C42.9464 77.99 45.5889 78.9335 45.5889 78.9335C45.5889 78.9335 45.4002 71.1963 45.4002 63.6479C45.2114 59.8736 45.4002 55.9107 45.4002 55.9107ZM117.314 58.9301C117.502 61.0059 116.936 64.9688 116.936 65.3463C116.747 66.4785 115.804 69.3092 115.804 69.4979C115.049 71.1963 114.294 72.5173 113.539 73.8383C112.217 76.1028 109.197 79.8771 107.31 81.3868C100.515 87.2368 90.1337 90.6336 81.0738 91.5772C75.0338 92.332 68.0501 92.1433 61.4439 91.0111C59.1789 90.6336 55.9701 89.8788 55.9701 89.8788C55.9701 89.8788 55.9701 91.1998 55.7814 92.1433C55.7814 92.5208 55.4039 93.653 55.2151 94.0304C54.8376 94.974 53.8939 95.5401 52.9502 95.7289C51.6289 95.9176 50.1189 96.1063 48.9864 95.5401C46.9102 94.5966 46.1552 92.7095 45.7777 90.6336C45.4002 88.9352 45.2114 85.7271 45.2114 85.7271C45.2114 85.7271 43.7014 84.9723 42.3802 84.4062C38.4165 82.519 34.6415 80.0658 31.4328 77.6125C30.489 76.8577 26.714 73.6496 25.7703 72.8947C23.3165 70.6302 21.2403 68.3657 19.5416 65.3463C18.2203 63.0817 17.8428 61.0059 18.7866 58.5527C20.1078 55.1558 25.0153 52.7026 28.224 51.1929C30.6778 50.0606 38.2277 47.6074 41.2477 47.23C42.7577 47.0412 45.0227 46.6638 45.2114 46.4751C45.2114 46.4751 45.4002 46.4751 45.4002 46.2864C45.4002 46.0977 45.5889 42.8896 45.5889 41.5686C45.5889 40.4363 46.5327 32.5104 46.7214 30.812C46.9102 29.8685 47.4764 26.4717 48.2314 25.5281C48.6089 24.962 49.5527 24.962 50.1189 25.3394C53.7051 27.6039 54.8376 35.3411 55.0264 39.3041C55.2151 41.7573 55.2151 45.3428 55.2151 45.3428C55.2151 45.3428 59.3676 45.1541 61.8214 45.3428C64.2751 45.3428 66.9176 45.7203 69.5601 46.2864C72.7688 46.8525 79.1863 48.1735 82.7725 50.0606C85.7925 51.5703 88.6237 54.2123 89.5675 56.8543C90.3225 59.3075 90.3225 61.0059 89.0012 63.2704C87.4912 65.7237 84.8487 67.6108 82.0175 67.7995C81.2625 67.7995 78.0538 67.4221 77.11 66.6673C76.7325 66.2898 76.7325 65.9124 77.11 65.535C77.2988 65.3463 78.62 64.5914 79.5638 64.214C79.9413 64.0253 80.3188 63.6479 80.6963 63.4592C81.4513 62.893 82.0175 62.1382 82.0175 61.3833C81.8288 60.2511 80.885 59.6849 79.7525 59.3075C74.845 57.4204 64.8413 55.722 59.9339 55.3446C58.0464 55.1558 55.4039 55.1558 55.4039 55.1558L55.9701 81.7642C55.9701 81.7642 58.2351 82.1416 59.9339 82.519C60.8776 82.7077 65.2188 83.0852 66.3513 83.0852C75.0338 83.2739 84.4712 82.519 92.3987 78.7448C95.7962 77.0464 99.0049 75.1593 101.459 72.3286C104.667 68.7431 106.366 63.6479 105.8 58.5527C105.234 52.8913 101.27 46.0977 98.0612 41.946C89.5675 31.1895 75.2225 22.1313 62.3876 17.0361C49.3639 11.7522 36.529 8.54407 22.7503 8.16665C19.1641 7.97794 11.4254 8.16665 7.46162 9.29892C6.89538 9.48763 6.32913 9.67634 5.76288 9.67634C5.38538 9.67634 4.63039 10.0538 4.44164 10.2425C4.25289 10.2425 4.25289 10.4312 4.25289 10.4312C4.25289 10.4312 4.44164 10.6199 4.63039 10.6199C5.00789 10.8086 6.70663 10.9973 7.65037 10.9973C8.40537 11.186 9.34911 11.5635 9.53786 12.1296C9.91536 12.6957 9.91536 13.0732 9.53786 13.6393C8.59412 14.7716 5.38538 14.5828 3.87539 14.3941C2.3654 14.2054 0.477908 13.6393 0.100409 12.3183C-0.277089 10.8086 0.477907 9.29892 1.2329 7.78923C2.93165 4.95855 5.19663 3.44886 8.59412 2.5053C13.3128 1.18432 19.5416 0.24076 24.0715 0.0520485C34.264 -0.325375 44.0789 1.37303 54.0826 4.39242C59.7451 6.09082 67.2951 8.9215 72.7688 11.5635C76.7325 13.4506 82.9613 16.8474 86.3587 19.3006C87.4912 20.0555 93.9087 24.7733 94.8524 25.5281C96.9287 27.2265 99.5712 29.6798 101.647 31.5669C105.422 35.3411 110.141 41.1912 112.406 45.7203C112.972 46.8525 113.35 47.9848 114.105 49.1171C114.294 49.4945 115.426 52.1365 115.615 52.8913C115.804 53.6462 115.992 54.7784 115.992 54.7784C116.936 55.9107 117.314 58.1752 117.314 58.9301ZM161.67 61.0059H162.047C165.256 61.3833 168.276 61.9495 170.73 63.0817C172.995 64.0253 174.127 65.3463 175.448 67.4221C177.147 70.8189 177.336 75.348 175.826 78.9335C174.693 81.5755 172.051 83.6513 169.597 84.9723C167.143 86.1046 164.69 86.6707 161.858 87.0481C156.951 87.6142 151.477 86.6707 147.136 84.4062C144.493 83.0852 141.285 80.8206 139.586 77.99C138.453 75.9141 138.453 73.0835 139.963 71.1963C142.228 67.9882 147.325 67.4221 150.911 67.4221C153.742 67.6108 158.838 68.3657 161.67 69.3092C162.425 69.4979 165.256 70.6302 165.633 71.1963C166.011 71.5738 166.2 71.9512 166.011 72.5173C165.445 74.4044 160.726 75.348 159.405 75.5367C155.818 76.1028 153.931 74.7819 149.967 73.0835C149.023 72.706 147.702 72.3286 146.57 72.1399C144.682 71.9512 142.606 72.5173 142.228 74.4044C142.04 75.348 143.172 76.4803 144.116 76.8577C146.192 77.8012 148.08 78.1787 150.156 78.1787C156.385 78.3674 163.557 77.2351 168.653 73.6496C169.408 73.0835 169.975 72.3286 169.975 71.5738C169.975 71.3851 169.786 70.4415 169.408 70.2528H169.22C169.031 70.2528 168.842 69.8754 168.653 69.6866C168.276 69.3092 166.766 68.5544 166.577 68.5544C163.18 67.0447 156.762 66.4785 153.365 66.1011C149.967 65.7237 144.493 65.3463 143.172 65.1576C141.851 64.9689 140.341 64.7801 139.208 64.214C138.076 63.6479 136.943 62.5156 136.566 61.1946C136 58.7414 136.755 55.9107 138.076 54.0236C141.473 49.1171 149.59 47.23 155.63 46.4751C161.481 45.7203 170.918 45.7203 176.581 48.7396C177.525 49.1171 177.902 49.6832 177.713 50.6268C177.336 52.3252 176.015 53.4574 174.316 54.0236C172.617 54.5897 169.031 54.7784 167.521 54.7784C160.537 55.1558 152.232 54.9671 145.626 56.6655C145.06 56.8543 144.305 57.043 143.927 57.4204C142.983 58.5527 145.815 58.9301 146.381 58.9301H146.758L161.67 61.0059ZM183.187 86.6707C180.356 85.7271 179.79 81.1981 179.601 78.9335C179.223 71.5738 181.111 61.1946 183.565 54.2123C184.32 52.1365 185.263 48.9284 187.528 49.1171C189.038 49.3058 190.171 50.4381 190.926 51.5703C193.191 54.5897 196.022 58.7414 197.909 61.7608C199.986 64.9689 202.062 68.3657 204.138 71.1963C204.327 71.5738 204.704 71.9512 204.893 72.1399C205.271 72.5173 205.648 72.5173 205.648 72.1399C205.648 71.9512 205.648 68.3657 205.459 67.6108C205.271 66.4785 205.271 65.535 205.082 64.4027C204.704 61.3833 203.761 57.2317 203.006 54.401C202.251 51.1929 201.118 47.9848 200.363 44.7767C200.174 43.8331 199.986 42.7009 199.986 41.7573C199.986 40.4363 200.929 39.6815 202.251 40.0589C205.082 41.0025 208.857 47.23 209.989 49.3058C210.367 50.0606 211.877 53.6462 212.254 54.7784C213.387 58.3639 214.142 61.572 214.519 65.535C214.897 69.3092 214.519 74.7819 213.009 78.3674C212.443 79.6884 211.311 81.5755 210.178 82.519C208.668 84.0287 205.459 85.161 203.383 83.84C201.118 82.519 197.154 75.9141 196.588 74.7819C194.323 70.8189 190.548 63.2704 189.982 62.5156C189.793 62.3269 189.604 62.1382 189.416 62.1382C189.227 62.1382 189.038 62.5156 189.038 62.893C188.661 65.1576 188.472 75.348 188.472 75.7254C188.472 77.4238 188.283 81.7642 187.906 83.84C187.528 85.161 187.339 86.2933 186.018 86.8594C184.886 87.2368 184.319 87.0481 183.187 86.6707ZM221.503 86.1046C221.126 85.9158 220.748 85.3497 220.371 84.9723C220.371 84.9723 219.238 83.4626 219.049 82.8965C218.861 82.519 218.672 82.1416 218.672 81.9529C217.728 79.4997 217.728 77.2351 218.294 74.7819C218.861 72.3286 219.238 72.3286 220.371 69.1205C220.371 68.9318 220.559 68.7431 220.559 68.5544C220.559 68.1769 219.804 65.1576 219.804 64.214C219.804 62.7043 220.937 61.7608 222.824 61.572H223.202C223.957 61.3833 224.523 59.8736 224.901 58.7414C225.467 57.043 226.411 54.5897 226.411 54.5897C226.411 54.5897 223.957 54.0236 222.636 53.6462C221.126 53.08 220.182 52.3252 219.427 51.0042C218.672 49.4945 219.238 48.5509 220.748 48.1735C221.314 47.9848 226.033 47.0412 227.543 46.8525C229.431 46.6638 231.129 46.2864 232.828 46.0977C234.338 45.909 241.322 45.1541 243.587 45.1541C246.984 45.3428 249.249 46.6638 251.137 49.4945C252.269 51.0042 252.835 52.8913 251.325 53.8349C248.872 55.3446 240.944 55.5333 239.434 55.5333H233.961L232.262 61.0059H241.133C241.888 61.0059 242.643 61.0059 243.209 61.1946C244.908 61.572 245.474 62.893 245.474 64.5914C245.474 66.6673 245.097 67.7995 243.398 67.9882C242.454 68.177 232.639 68.177 231.318 68.3657C230.563 68.5544 229.619 68.5544 229.619 68.5544C229.619 68.5544 228.864 70.4415 228.298 72.3286C227.732 74.2157 227.166 76.2916 227.166 76.2916H228.109C228.864 76.2916 229.431 76.2915 229.997 76.1028C233.017 75.5367 237.547 74.9706 241.133 74.4044C243.02 74.027 244.153 74.027 245.097 75.348C246.04 76.4803 246.418 77.4238 246.607 78.9335C246.607 80.2545 245.663 81.1981 244.342 82.1416C240.567 85.161 233.772 88.3691 228.864 88.9352C226.599 89.1239 226.033 88.9352 223.957 88.3691C223.579 88.1804 222.258 87.6143 222.258 87.6143C222.636 86.8594 221.881 86.2933 221.503 86.1046ZM283.79 58.7414C281.337 60.8172 277.939 65.1576 276.429 67.4221C274.353 70.4415 272.465 73.8383 270.578 76.4803C270.2 77.0464 268.879 79.1222 269.068 79.3109C269.068 79.4996 270.389 79.4997 271.71 79.1222C274.353 78.7448 277.939 76.8577 280.015 75.1593C283.035 72.706 285.112 69.4979 286.055 65.7237C286.433 64.0253 286.622 60.4398 285.489 58.7414C284.923 58.5527 284.168 58.3639 283.79 58.7414ZM263.594 89.8788C263.594 89.8788 262.839 92.332 262.273 94.0304C261.329 97.2385 259.064 105.731 258.498 108.561C257.743 112.524 255.478 122.903 255.478 123.092C255.289 123.469 255.289 123.469 254.912 123.658C253.968 124.224 253.59 124.036 252.458 123.469C250.948 122.715 249.815 121.96 248.683 120.45C246.607 117.619 246.984 112.335 247.55 109.316C249.06 98.3708 250.57 93.653 254.723 82.8965V82.519C253.402 79.6884 252.647 76.4803 252.647 73.8383C252.647 65.3463 257.554 57.043 263.028 50.2493C263.405 49.6832 266.048 46.4751 267.369 46.6638C268.502 46.6638 268.879 48.1735 268.69 49.3058C268.124 53.2687 265.293 57.2317 263.405 60.4398C261.329 64.214 260.763 65.7237 259.819 69.1205C259.63 69.6866 259.253 72.1399 259.253 72.5173C259.253 73.4609 259.442 74.5931 259.442 74.5931C259.442 74.5931 262.839 69.6866 265.104 66.856C266.425 65.1576 267.18 64.214 268.313 62.893C269.445 61.7608 273.409 57.4204 274.542 56.4768C276.995 54.2123 278.128 53.2687 280.77 51.759C282.847 50.6268 284.734 50.4381 286.81 51.759C290.019 53.8349 291.529 58.3639 291.906 61.9495C292.284 66.2898 291.529 71.1963 289.453 74.9706C287.188 79.4997 283.979 82.7077 279.827 85.3497C275.485 88.1804 270.389 90.2562 265.482 90.0675C264.349 89.8788 263.594 89.8788 263.594 89.8788Z" fill="black"/>
</svg>
