<svg width="284" height="157" viewBox="0 0 284 157" fill="none" xmlns="http://www.w3.org/2000/svg">
<path d="M107.022 156.972C106.937 156.631 106.908 156.29 106.823 156.007C98.8482 132.11 90.8733 108.186 82.9268 84.2896C76.5128 65.218 70.1556 46.0897 63.7985 26.9897C63.7133 26.7059 63.5998 26.3653 63.5146 25.968H81.0253C89.7097 51.9928 98.3941 78.0459 107.078 104.127H107.249C118.828 69.4183 130.379 34.7091 141.958 0H142.157C146.016 11.5224 149.819 23.0448 153.679 34.5956C157.539 46.2032 161.398 57.7824 165.287 69.3899C169.146 80.9691 173.006 92.5199 176.866 104.071H177.036L177.121 104.042C177.15 104.014 177.206 103.929 177.206 103.872C185.862 77.9324 194.49 52.0495 203.146 26.0531H220.657C206.126 69.5886 191.623 113.096 177.093 156.631C177.008 156.631 176.979 156.631 176.894 156.659C174.936 150.927 173.034 145.165 171.133 139.404C169.175 133.586 167.273 127.797 165.315 121.95C163.413 116.189 161.455 110.371 159.497 104.61C157.595 98.8487 155.637 93.0307 153.736 87.2695C151.777 81.4516 149.848 75.662 147.918 69.844C146.016 64.0828 144.058 58.3216 141.986 52.5604C141.873 52.9293 141.731 53.3266 141.617 53.6672C134.465 75.2079 127.257 96.7202 120.077 118.261C115.848 131.032 111.563 143.775 107.306 156.546C107.277 156.716 107.277 156.886 107.22 157C107.135 156.972 107.05 156.972 107.022 156.972Z" fill="#0A493E"/>
<path d="M283.803 88.8305C283.718 89.4264 283.633 90.0224 283.519 90.6184C282.413 96.0107 279.802 100.523 275.772 104.213C275.516 104.468 275.232 104.723 274.92 104.979C277.758 113.55 280.596 122.064 283.491 130.663H265.98C263.767 124.022 261.525 117.324 259.283 110.627H238.082V130.663H221.48V60.8191C221.849 60.8191 222.189 60.7907 222.502 60.7907C234.677 60.7907 246.824 60.7623 258.999 60.7907C270.663 60.8191 280.539 68.5385 283.321 79.8623C283.519 80.7421 283.661 81.6502 283.832 82.53C283.803 84.6302 283.803 86.7303 283.803 88.8305ZM238.026 94.024H239.218H258.545C258.999 94.024 259.481 93.9957 259.935 93.9389C265.271 93.3997 268.676 88.0074 266.889 82.9557C265.753 79.692 262.66 77.4499 259.141 77.3932C252.358 77.3648 245.575 77.3932 238.792 77.3932H238.026V94.024Z" fill="#0A493E"/>
<path d="M0 93.0875C0.198662 92.0658 0.368944 91.0441 0.595987 90.0224C2.63937 78.2729 8.82628 69.3899 19.0716 63.4017C25.3153 59.7974 32.0698 58.3216 39.25 58.6621C46.0613 59.0027 52.3333 61.1312 58.0378 64.9058C58.4067 65.1612 58.7473 65.4167 59.1446 65.7005C57.2431 71.4333 55.3416 77.1093 53.3834 82.9557C53.0996 82.6151 52.8442 82.4165 52.6171 82.1611C49.4385 78.6419 45.5504 76.4282 40.8677 75.6052C30.4805 73.7321 20.3203 80.1461 17.5107 90.3062C14.2469 102.056 21.8812 114.032 33.9429 116.047C39.9595 117.012 45.3518 115.508 50.1764 111.818C50.6305 111.478 50.8576 111.052 50.8576 110.456C50.8292 109.009 50.8576 107.533 50.8576 106.086C50.8576 105.83 50.8292 105.546 50.8292 105.206H37.3485V88.7737C37.3769 88.7737 37.3769 88.7453 37.4337 88.6885C37.462 88.6601 37.462 88.6602 37.5188 88.6602C37.6323 88.6318 37.7742 88.6318 37.8877 88.6318H66.9492C67.0343 88.6318 67.1195 88.6601 67.2898 88.7169C67.3181 88.9723 67.3749 89.2277 67.3749 89.4832V117.154C67.3749 117.58 67.3749 117.92 67.0911 118.289C63.8557 122.177 60.2798 125.611 55.8241 128.109C49.2115 131.827 42.1448 133.444 34.5389 132.933C18.6743 131.827 4.9098 120.389 1.13521 104.44C0.794649 103.049 0.624368 101.545 0.368945 100.154C0.283804 99.7001 0.113521 99.1892 0 98.7068V93.0875Z" fill="#0A493E"/>
</svg>
