<svg width="266" height="84" viewBox="0 0 266 84" fill="none" xmlns="http://www.w3.org/2000/svg">
<path d="M227.392 10.8443C227.392 5.55771 231.594 1.21997 236.949 1.21997C242.235 1.21997 246.505 5.55771 246.505 10.8443C246.505 16.1987 242.235 20.4686 236.949 20.4686C231.594 20.4686 227.392 16.1987 227.392 10.8443Z" fill="#009A67"/>
<path d="M203.127 9.6921C203.127 4.33773 207.397 0 212.684 0C217.971 0 222.308 4.33773 222.308 9.6921C222.308 14.9787 217.971 19.3164 212.684 19.3164C207.397 19.3164 203.127 14.9787 203.127 9.6921Z" fill="#009A67"/>
<path d="M244.607 27.5174C244.607 22.163 248.945 17.8931 254.231 17.8931C259.518 17.8931 263.788 22.163 263.788 27.5174C263.788 32.8718 259.518 37.1417 254.231 37.1417C248.945 37.1417 244.607 32.8718 244.607 27.5174Z" fill="#009A67"/>
<path d="M246.302 52.1204C246.302 46.8338 250.572 42.4961 255.926 42.4961C261.213 42.4961 265.482 46.8338 265.482 52.1204C265.482 57.4748 261.213 61.7447 255.926 61.7447C250.572 61.7447 246.302 57.4748 246.302 52.1204Z" fill="#009A67"/>
<path d="M200.484 43.5806C200.484 32.0585 209.77 22.7053 221.224 22.7053C232.678 22.7053 241.964 32.0585 241.964 43.5806C241.964 55.1027 232.678 64.4559 221.224 64.4559C209.77 64.4559 200.484 55.1027 200.484 43.5806Z" fill="#009A67"/>
<path d="M19.7231 73.6735C19.7231 76.4524 18.7742 78.8246 16.8765 80.7223C14.9787 82.6879 12.6742 83.6367 9.96325 83.6367C7.18446 83.6367 4.81224 82.6879 2.91438 80.7223C0.948935 78.8246 0 76.4524 0 73.6735V31.9229C0 29.1441 0.948935 26.7719 2.91438 24.8741C4.81224 22.9086 7.18446 21.9597 9.96325 21.9597C12.6742 21.9597 14.9787 22.9086 16.8765 24.8741C18.7742 26.7719 19.7231 29.1441 19.7231 31.9229V73.6735Z" fill="#009A67"/>
<path d="M80.3838 70.1491L60.7285 28.3985C58.695 24.1286 55.5775 21.9597 51.3752 21.9597C46.9697 21.9597 43.7841 24.1286 41.8187 28.3985L22.9767 70.1491C22.6377 71.2335 22.4346 72.3857 22.4346 73.4702C22.4346 76.3168 23.3833 78.689 25.3489 80.7223C27.3144 82.6879 29.6866 83.6367 32.5332 83.6367C34.702 83.6367 36.7355 83.0267 38.4975 81.6712C40.2598 80.3834 41.4797 78.6212 42.1575 76.5201L42.4287 75.1646H60.5251L61.2028 76.5201C61.8128 78.6212 63.0329 80.3834 64.795 81.6712C66.5572 83.0267 68.5905 83.6367 70.7595 83.6367C73.6061 83.6367 75.9783 82.6879 77.9438 80.7223C79.9092 78.689 80.9259 76.3168 80.9259 73.4702C80.9259 72.3857 80.7226 71.2335 80.3838 70.1491ZM55.4419 61.2026C54.3573 62.287 53.1374 62.7614 51.6464 62.7614C50.1553 62.7614 48.9352 62.287 47.8508 61.2026C46.8341 60.1859 46.292 58.8982 46.292 57.4071C46.292 55.916 46.8341 54.6282 47.8508 53.6115C48.9352 52.5271 50.1553 51.9849 51.6464 51.9849C53.1374 51.9849 54.3573 52.5271 55.4419 53.6115C56.4584 54.6282 57.0008 55.916 57.0008 57.4071C57.0008 58.8982 56.4584 60.1859 55.4419 61.2026Z" fill="#009A67"/>
<path d="M126.878 77.5368C126.201 79.3668 124.981 80.7901 123.286 81.9423C121.66 83.0267 119.83 83.5689 117.796 83.5689C115.831 83.5689 114.001 83.0267 112.374 81.9423C110.748 80.8578 109.595 79.3668 108.918 77.5368L104.105 65.0658L104.241 64.9303L102.343 75.2324C101.869 77.6046 100.784 79.5701 99.0221 81.1967C97.192 82.7556 95.1588 83.5689 92.7188 83.5689C90.0078 83.5689 87.7034 82.6201 85.8057 80.7223C83.84 78.7568 82.8911 76.5201 82.8911 73.7413C82.8911 73.3346 82.9589 72.7924 83.0267 72.1824L89.6688 30.364C90.0756 27.9241 91.1599 25.9585 92.99 24.3997C94.7522 22.8408 96.9211 22.0275 99.3611 22.0275C101.259 22.0275 103.021 22.5697 104.783 23.5864C106.478 24.6708 107.698 26.0941 108.511 27.8563L117.796 49.6805L127.827 27.5852C129.861 23.9252 132.64 22.0275 136.232 22.0275C138.672 22.0275 140.841 22.9086 142.67 24.603C144.568 26.3652 145.72 28.3985 146.127 30.9063L152.905 71.9113C152.973 72.2502 152.973 72.7924 152.973 73.5379C152.973 76.249 152.024 78.6212 150.126 80.6545C148.228 82.5523 145.924 83.5689 143.213 83.5689C140.841 83.5689 138.672 82.7556 136.842 81.1289C134.944 79.5023 133.859 77.469 133.453 75.029L131.758 64.9303L126.878 77.5368Z" fill="#009A67"/>
<path d="M176.83 22.0274C181.032 21.6886 185.234 22.7052 189.301 24.8741C193.978 27.3818 196.214 30.7029 196.214 34.9051C196.214 37.1417 195.604 39.1072 194.249 40.5983C192.825 42.225 191.063 43.0383 188.759 43.0383C186.996 43.0383 185.167 42.4283 183.269 41.2761C181.71 40.1239 180.083 39.0395 178.524 37.955C178.186 37.6839 177.711 37.5484 177.101 37.5484C175.407 37.5484 174.526 38.2939 174.526 39.785C174.526 40.2594 174.661 40.6661 174.865 41.0728C175.339 41.8861 176.898 42.6994 179.609 43.5805C180.422 43.9194 182.117 44.5294 184.692 45.4105C188.894 46.766 192.215 49.0704 194.859 52.1882C197.57 55.5093 198.858 59.3048 198.858 63.5069C198.858 66.9636 197.909 70.4879 195.943 74.0124C192.961 79.3667 187.471 82.5522 179.609 83.4334C178.186 83.5689 177.033 83.6367 176.152 83.6367C171.95 83.6367 168.087 82.8234 164.495 81.1967C160.428 79.2312 157.581 76.5879 155.955 73.1312C155.277 71.7079 155.006 70.2846 155.006 68.7258C155.006 66.218 155.819 64.1169 157.446 62.3547C159.005 60.7281 161.106 59.847 163.613 59.847C165.918 59.847 168.154 60.7281 170.324 62.4225C171.272 63.2358 172.289 64.1169 173.238 64.9302C174.526 65.9469 175.61 66.4213 176.491 66.4213C177.101 66.4213 177.711 66.1502 178.186 65.608C178.728 65.0658 178.999 64.4558 178.999 63.778C178.999 62.287 177.237 60.9992 173.712 59.7792C168.561 58.017 164.834 56.3226 162.597 54.7637C158.462 51.7137 156.294 47.3082 156.294 41.4117C156.294 37.6161 157.175 34.2273 158.937 31.3807C162.326 25.7552 168.29 22.6374 176.83 22.0274Z" fill="#009A67"/>
</svg>
