<svg width="457" height="87" viewBox="0 0 457 87" fill="none" xmlns="http://www.w3.org/2000/svg">
<g clip-path="url(#clip0_235_409)">
<path d="M7.91105 34.2103C7.91105 37.6979 7.69043 39.8222 7.21767 40.71C6.99705 41.1221 6.77643 41.5343 6.49277 41.8514C6.1776 42.2001 5.73636 42.4855 5.20057 42.7074C4.3496 43.0562 3.18346 43.2147 1.67063 43.183C1.29243 43.183 0.0317383 43.183 0.0317383 43.183C1.4185 44.578 5.79939 48.9851 5.92546 49.1119C8.0056 48.6363 9.70753 47.8437 11.1573 46.2584C11.8822 45.4658 12.481 44.5146 13.0168 43.2464C14.0569 40.8368 14.246 37.6345 14.2145 34.8761V0.158569H7.94257V34.2103H7.91105Z" fill="black"/>
<path d="M69.8107 6.56308C65.6189 2.53648 60.261 0.507324 53.9575 0.507324C47.6541 0.507324 42.3277 2.53648 38.1989 6.56308C34.0701 10.5897 31.9585 15.7577 31.9585 21.9086C31.9585 28.0594 34.0386 32.9738 38.1674 36.937C42.2646 40.9319 47.4965 42.9293 53.6424 42.9293C59.7882 42.9293 65.5244 40.9002 69.7477 36.937C74.0025 32.9421 76.1457 27.8375 76.1457 21.7817C76.1457 15.726 74.0025 10.5897 69.8107 6.56308ZM69.6216 21.6866C69.6216 26.0303 68.1088 29.7081 65.1461 32.625C62.1835 35.5419 58.433 37.0321 53.989 37.0321C49.5451 37.0321 45.8576 35.5737 42.9265 32.7202C39.9954 29.8667 38.5141 26.2205 38.5141 21.9403C38.5141 17.66 39.9954 13.7919 42.9265 10.9384C45.8576 8.08495 49.6397 6.62649 54.1781 6.62649C58.7166 6.62649 62.1835 8.08495 65.1461 10.9702C68.1088 13.8554 69.5901 17.4698 69.5901 21.6866H69.6216Z" fill="url(#paint0_linear_235_409)"/>
<path d="M186.046 32.5933L157.208 0.634155H151.976V42.9611H158.153V11.2555L186.74 42.9611H192.255V0.634155H186.046V32.5933Z" fill="url(#paint1_linear_235_409)"/>
<path d="M241.485 0H235.087V41.3123H260.49V35.5102H241.485V0Z" fill="url(#paint2_linear_235_409)"/>
<path d="M287.784 23.3987H306.978V17.5649H287.784V5.80211H307.545V0H281.386V41.3123H308.081V35.5102H287.784V23.3987Z" fill="url(#paint3_linear_235_409)"/>
<path d="M412.782 0H406.415V41.3123H412.782V0Z" fill="url(#paint4_linear_235_409)"/>
<path d="M449.751 19.277L445.244 16.6772C443.321 15.5358 441.777 14.3626 440.895 13.3164C440.107 12.3969 439.791 11.4774 439.791 10.2409C439.791 9.00442 440.359 7.92643 441.462 7.10208C442.596 6.27774 444.109 5.86557 445.874 5.86557C449.247 5.83386 452.619 7.54596 455.424 10.3995V3.10718C452.43 1.04632 449.593 0.158569 446 0.158569C442.407 0.158569 439.445 1.17315 437.27 3.13889C435.032 5.16804 433.929 7.7996 433.929 11.0336C433.929 13.253 434.623 15.2504 435.915 16.8991C437.428 18.7697 439.287 20.3867 441.651 21.8452L445.969 24.4767C449.404 26.6327 451.138 28.8838 451.138 31.1666C451.138 32.5616 450.539 33.7347 449.404 34.7176C448.333 35.6371 446.914 36.0809 445.118 36.0809C440.8 36.0809 437.333 34.0201 434.15 29.7715V37.9833C437.365 40.488 440.989 41.7245 445.149 41.8196C448.49 41.8831 451.421 40.8368 453.627 38.7442C455.834 36.6834 456.968 33.9567 456.968 30.691C456.968 25.9669 454.605 22.2573 449.719 19.3087L449.751 19.277Z" fill="url(#paint5_linear_235_409)"/>
<path d="M124.399 0.887785V17.1527H100.792V0.856079H94.3311V42.7074H100.792V23.0183H124.399V42.7391H130.86V0.887785H124.399Z" fill="url(#paint6_linear_235_409)"/>
<path d="M379.625 0L368.657 27.6155L357.626 0H356.46H355.042H352.615L341.584 27.6155L330.585 0H324.187L340.796 41.6611H342.309L355.105 9.79701L367.932 41.6611H369.445L386.055 0H379.625Z" fill="url(#paint7_linear_235_409)"/>
<path d="M94.9616 73.6837L96.0647 72.8277C97.1363 72.035 97.6721 71.1473 97.6406 70.101C97.6406 69.4669 97.5776 68.8645 97.1048 68.4206C96.632 67.9767 95.8126 67.7548 95.1192 67.7548C94.4258 67.7548 93.7955 67.9767 93.3543 68.3889C92.913 68.7693 92.8185 69.34 92.85 69.9425C92.85 70.5132 92.976 71.179 93.4173 71.8131C93.9216 72.5423 94.4258 73.1447 94.9616 73.6837ZM98.8698 82.2442L94.2683 77.203L92.85 78.1542C91.5263 79.1688 90.8329 80.3419 90.8644 81.4833C90.8644 82.0857 91.085 82.8149 91.3687 83.2271C92.4087 84.6221 95.3398 84.3368 96.0963 84.0831C97.483 83.6075 98.9013 82.2759 98.9013 82.2759M102.935 86.6513L100.666 84.2734C100.446 84.4953 98.0188 86.5562 95.5605 86.9049C94.4258 87.0634 93.7009 87.0317 92.7554 86.9049C91.1796 86.6513 90.3601 86.4293 89.2885 85.4465C88.2169 84.4636 87.7127 83.1637 87.6812 81.7369C87.6812 80.7223 87.9018 79.8029 88.3745 78.9785C88.8788 78.1542 89.4146 77.425 90.5492 76.5689H90.5807C91.2426 75.9982 91.9045 75.586 92.4087 75.3007C90.7383 73.3667 89.8558 72.035 89.7298 70.2912C89.6352 68.8011 90.171 67.5962 91.1481 66.6768C92.1251 65.7573 93.4173 65.2817 95.0247 65.2817C96.632 65.2817 97.8927 65.7256 98.9328 66.6451C99.9729 67.5645 100.509 68.7059 100.54 70.1327C100.603 72.035 99.4056 74.0008 96.9157 75.586L96.6951 75.7446L100.603 80.0248C101.297 79.0419 101.801 77.4884 102.431 75.8714H105.394C104.7 77.8054 104.07 80.2468 102.494 82.1174L106.781 86.7464H102.841L102.935 86.6513Z" fill="black"/>
<path d="M147.911 67.5645H144.633V74.4129H148.1C149.36 74.4129 150.338 74.1276 151.031 73.5252C151.724 72.9228 152.071 72.0667 152.071 70.957C152.071 68.7059 150.684 67.5962 147.942 67.5962M141.513 86.683V64.8062H148.446C150.527 64.8062 152.166 65.3768 153.395 66.4865C154.624 67.6279 155.254 69.1181 155.254 71.0204C155.254 72.2887 154.971 73.4618 154.34 74.4446C153.741 75.3641 152.827 76.125 151.724 76.5372C150.401 77.0445 149.171 77.203 146.997 77.203H144.633V86.683H141.513Z" fill="black"/>
<path d="M178.64 77.4249L175.141 69.4985L171.895 77.4249H178.64ZM174.07 64.7109H176.245L185.983 86.6829H182.8L179.901 80.2149H170.634L167.924 86.6829H164.741L174.07 64.7109Z" fill="black"/>
<path d="M226.452 64.8062H244.7V67.5645H237.136V86.683H234.016V67.5645H226.452V64.8062Z" fill="black"/>
<path d="M276.532 64.8378H279.464V86.6829H276.785L262.161 69.8472V86.6829H259.229V64.8378H261.751L276.532 81.8002V64.8378Z" fill="black"/>
<path d="M295.916 64.8378H308.239V67.5961H299.036V74.286H307.924V77.0761H299.036V83.8611H308.554V86.6512H295.916V64.8378Z" fill="black"/>
<path d="M327.779 67.4693H326.834V74.3811H328.032C329.607 74.3811 330.679 74.2543 331.278 73.969C331.877 73.6836 332.318 73.3031 332.633 72.7324C332.948 72.1935 333.137 71.5593 333.137 70.8618C333.137 70.1643 332.948 69.5619 332.602 68.9912C332.223 68.4205 331.719 68.04 331.057 67.8181C330.395 67.5961 329.292 67.4693 327.779 67.4693ZM323.682 86.6829V64.8378H329.198C331.404 64.8378 333.137 65.3768 334.43 66.4865C335.722 67.5961 336.352 69.0546 336.352 70.9252C336.352 72.1935 336.037 73.3031 335.407 74.2226C334.776 75.1421 333.925 75.8396 332.728 76.3152C333.421 76.759 334.114 77.3932 334.776 78.1858C335.438 78.9784 336.352 80.3735 337.55 82.3392C338.306 83.5757 338.937 84.5269 339.409 85.1293L340.544 86.6829H336.793C336.793 86.6829 335.785 85.0976 335.69 84.9708L334.114 82.4978L332.948 80.7856C332.318 79.8979 331.719 79.137 331.183 78.598C330.647 78.059 330.238 77.7102 329.797 77.4883C329.355 77.2663 328.567 77.1395 327.559 77.1395H326.739V86.6512H323.619L323.682 86.6829Z" fill="black"/>
<path d="M203.98 67.4693H203.034V74.3811H204.232C205.808 74.3811 206.879 74.2543 207.478 73.969C208.077 73.6836 208.518 73.3031 208.833 72.7324C209.148 72.1935 209.306 71.5593 209.306 70.8618C209.306 70.1643 209.117 69.5619 208.77 68.9912C208.392 68.4205 207.888 68.04 207.226 67.8181C206.564 67.5961 205.461 67.4693 203.948 67.4693M199.882 86.6829V64.8378H205.398C207.604 64.8378 209.338 65.3768 210.63 66.4865C211.922 67.5961 212.552 69.0546 212.552 70.9252C212.552 72.1935 212.237 73.3031 211.607 74.2226C210.976 75.1421 210.125 75.8396 208.928 76.3152C209.621 76.759 210.315 77.3932 210.976 78.1858C211.638 78.9784 212.552 80.3735 213.75 82.3392C214.506 83.5757 215.137 84.5269 215.609 85.1293L216.744 86.6829H212.994C212.994 86.6829 211.985 85.0976 211.89 84.9708L210.315 82.4978L209.148 80.7856C208.518 79.8979 207.919 79.137 207.383 78.598C206.848 78.059 206.438 77.7102 205.997 77.4883C205.555 77.2663 204.768 77.1395 203.759 77.1395H202.94V86.6512H199.819L199.882 86.6829Z" fill="black"/>
<path d="M359.99 77.52L357.627 76.0616C356.145 75.1421 355.074 74.2543 354.475 73.3666C353.844 72.4788 353.529 71.4643 353.529 70.3229C353.529 68.6108 354.128 67.2157 355.294 66.1377C356.492 65.0597 358.036 64.5208 359.927 64.5208C361.818 64.5208 363.394 65.028 364.907 66.0426V69.5936C363.331 68.0718 361.661 67.3108 359.864 67.3108C358.856 67.3108 358.005 67.5328 357.374 68.0084C356.713 68.4839 356.397 69.0863 356.397 69.8156C356.397 70.4814 356.65 71.0838 357.122 71.6545C357.595 72.2252 358.383 72.8276 359.455 73.4617L361.818 74.8885C364.466 76.4737 365.79 78.5029 365.79 80.9759C365.79 82.7197 365.222 84.1465 364.025 85.2562C362.858 86.3659 361.346 86.9049 359.486 86.9049C357.343 86.9049 355.389 86.239 353.624 84.9074V80.9442C355.294 83.1002 357.248 84.1465 359.455 84.1465C360.432 84.1465 361.251 83.8611 361.881 83.3221C362.543 82.7831 362.858 82.0856 362.858 81.2613C362.858 79.9296 361.913 78.6614 359.99 77.4883" fill="black"/>
</g>
<defs>
<linearGradient id="paint0_linear_235_409" x1="31.9585" y1="21.7183" x2="76.1457" y2="21.7183" gradientUnits="userSpaceOnUse">
<stop stop-color="#0C0E10"/>
<stop offset="0.07" stop-color="#151312"/>
<stop offset="0.18" stop-color="#2E2019"/>
<stop offset="0.33" stop-color="#583625"/>
<stop offset="0.5" stop-color="#915536"/>
<stop offset="0.51" stop-color="#945737"/>
<stop offset="0.99" stop-color="#E6E6E6"/>
</linearGradient>
<linearGradient id="paint1_linear_235_409" x1="151.976" y1="21.7818" x2="192.255" y2="21.7818" gradientUnits="userSpaceOnUse">
<stop stop-color="#F6A4BE"/>
<stop offset="0.14" stop-color="#ECA6C1"/>
<stop offset="0.36" stop-color="#D3AFCB"/>
<stop offset="0.65" stop-color="#A9BCDA"/>
<stop offset="0.98" stop-color="#70CEEF"/>
<stop offset="1" stop-color="#6ECFF1"/>
</linearGradient>
<linearGradient id="paint2_linear_235_409" x1="235.087" y1="20.672" x2="260.49" y2="20.672" gradientUnits="userSpaceOnUse">
<stop stop-color="#71CFF0"/>
<stop offset="0.07" stop-color="#77C7E6"/>
<stop offset="0.18" stop-color="#87B3CD"/>
<stop offset="0.32" stop-color="#A391A3"/>
<stop offset="0.49" stop-color="#C8646A"/>
<stop offset="0.63" stop-color="#EE3732"/>
</linearGradient>
<linearGradient id="paint3_linear_235_409" x1="281.386" y1="20.672" x2="308.081" y2="20.672" gradientUnits="userSpaceOnUse">
<stop stop-color="#EE3734"/>
<stop offset="0.16" stop-color="#EE4031"/>
<stop offset="0.42" stop-color="#F1592A"/>
<stop offset="0.74" stop-color="#F5811F"/>
</linearGradient>
<linearGradient id="paint4_linear_235_409" x1="406.415" y1="20.672" x2="412.782" y2="20.672" gradientUnits="userSpaceOnUse">
<stop stop-color="#73BC1E"/>
<stop offset="0.12" stop-color="#71B827"/>
<stop offset="0.33" stop-color="#6CB040"/>
<stop offset="0.59" stop-color="#64A36A"/>
<stop offset="0.89" stop-color="#5991A3"/>
<stop offset="1" stop-color="#558ABA"/>
</linearGradient>
<linearGradient id="paint5_linear_235_409" x1="433.929" y1="20.9891" x2="457" y2="20.9891" gradientUnits="userSpaceOnUse">
<stop stop-color="#5297C2"/>
<stop offset="1" stop-color="#6F2A81"/>
</linearGradient>
<linearGradient id="paint6_linear_235_409" x1="94.3311" y1="21.8134" x2="130.86" y2="21.8134" gradientUnits="userSpaceOnUse">
<stop stop-color="#CCCCCC"/>
<stop offset="0.33" stop-color="#D5C2C8"/>
<stop offset="0.87" stop-color="#EEAABE"/>
<stop offset="1" stop-color="#F6A3BC"/>
</linearGradient>
<linearGradient id="paint7_linear_235_409" x1="324.187" y1="20.8305" x2="386.055" y2="20.8305" gradientUnits="userSpaceOnUse">
<stop stop-color="#F6801D"/>
<stop offset="0.1" stop-color="#F7891A"/>
<stop offset="0.27" stop-color="#FAA213"/>
<stop offset="0.47" stop-color="#FFC809"/>
<stop offset="1" stop-color="#00942C"/>
</linearGradient>
<clipPath id="clip0_235_409">
<rect width="457" height="87" fill="white"/>
</clipPath>
</defs>
</svg>
