<svg width="379" height="103" viewBox="0 0 379 103" fill="none" xmlns="http://www.w3.org/2000/svg">
<path d="M25.5845 100.524L23.4958 99.0632C22.6105 88.5338 19.3184 82.1516 17.5735 78.8637C19.4344 77.6347 22.5245 74.8024 22.5245 70.7368C22.5245 66.6712 19.2067 64.5264 19.2067 59.4938C19.2067 56.7175 20.1522 54.401 21.6951 52.6002C20.6937 51.169 19.5204 50.3955 17.7755 50.3955C15.8286 50.3955 14.0837 51.9985 14.0837 54.4568C14.0837 55.888 14.7112 57.4611 16.0564 58.1485C15.0851 59.4938 12.5924 59.6356 11.2214 57.6029H11.1914C11.1914 62.4077 16.2842 65.7557 16.2842 70.8786C16.2842 74.1964 13.654 77.4026 9.84615 77.4026C7.01394 77.4026 4.35362 76.0875 2.97835 73.4529C6.06842 74.2522 8.29897 73.0232 8.29897 70.2769C8.29897 65.3001 0 60.4049 0 51.9383C0 45.2726 5.12293 41.5809 10.9593 41.5809C16.2799 41.5809 21.0289 44.0433 24.6089 50.2235C26.4399 48.8483 28.6704 48.079 30.9309 47.6191C37.0251 46.4159 44.4946 47.5031 50.2149 45.0706C52.7635 43.9832 54.8779 42.0664 54.8779 39.8617C54.8779 38.8044 54.2764 38.1728 53.4168 38.1728C52.987 38.1728 52.3295 38.3747 51.9556 39.3158C50.8382 38.3445 50.4944 37.3131 50.4944 36.2816C50.4944 34.5668 51.0358 33.7632 51.6375 32.9336C51.066 31.4466 49.291 31.1029 48.0876 32.5597C46.6006 29.8135 47.5161 26.0358 51.3798 24.8927V24.8625C46.8585 24.119 45.6594 21.3169 46.1708 18.1967C46.6006 18.5706 47.0861 18.7984 47.5719 18.7984C48.3154 18.7984 48.7753 18.1967 48.7753 17.3372C48.7753 16.4217 48.3197 14.9906 45.973 13.4176C48.0318 10.3275 51.5817 9.86764 53.3825 11.0152L53.4124 10.9851C52.4972 9.72581 52.0373 7.52106 53.4984 5.34642C53.8422 5.83205 54.6717 6.54977 55.9611 6.54977C59.7388 6.54977 59.8806 2.40244 62.7687 2.00275C62.5967 3.29207 62.9407 5.09285 64.5436 5.09285C66.6324 5.09285 67.6037 1.94688 68.1194 0C69.0349 0.515731 69.6924 1.40107 69.5506 3.06001H69.5806L70.8398 0.515731C71.8971 1.40107 72.099 2.89238 71.7553 4.2333C71.6693 4.5771 71.5534 4.83496 71.5534 5.03268C71.5534 6.03405 74.5574 6.77757 74.5574 9.00809C74.5574 9.38201 74.4414 9.78169 74.2695 10.2372L81.1374 18.9058C81.5671 19.4473 81.7089 20.0232 81.7089 20.5089C81.7089 22.3097 80.1359 24.2266 77.8754 24.2266C75.6147 24.2266 74.841 22.9973 74.7294 22.4257L68.7513 19.5075C68.4073 20.0791 68.0078 21.0246 68.0078 22.0819C68.0078 28.6618 77.308 28.8335 79.5687 37.4462L88.7831 34.3864C95.3629 40.7942 102.317 47.0046 106.61 49.5487L109.326 53.0129H101.088V50.6104L98.8268 49.9828C95.3629 44.5463 90.674 41.5722 88.1555 40.8287C85.0955 42.6897 82.8048 44.6323 80.1144 47.6363C84.4938 47.2926 89.3846 47.7223 93.4761 48.4958L91.3315 66.8947L89.5868 71.6135L84.9537 75.5632V67.436H87.4422L86.7545 64.8617C88.7874 59.4808 89.0452 55.8794 89.0452 53.9325C89.0452 53.3308 89.015 52.7592 88.8174 52.5573C88.6454 52.3853 87.9321 52.5573 87.3004 52.7291C85.6414 53.189 82.921 54.4741 79.4312 57.3063C76.2851 59.8806 74.566 61.0538 70.3028 60.5683C65.4977 65.5451 55.3122 67.9517 46.3814 67.8358C45.6937 75.0731 37.6827 79.2506 37.6827 82.6846C37.6827 83.9136 38.8559 85.9164 41.4304 89.7801C44.2926 94.0735 47.0087 98.1909 50.3869 99.5102L53.2491 103H44.9803L44.9245 100.512L42.5778 99.2223C39.8876 94.2455 35.6842 88.7486 29.9038 83.5998C31.3048 80.7978 32.0483 77.9355 32.0785 75.2149C29.474 79.1347 25.6705 79.1646 24.9828 82.1387C24.725 83.2561 24.8668 85.4308 25.4685 88.2329C26.3539 92.4662 27.1575 97.5032 31.077 99.4501L33.7933 103H25.5802V100.512L25.5845 100.524Z" fill="black"/>
<path d="M11.3336 43.9013C13.0484 43.9013 15.4809 44.3011 17.1699 45.8741C13.1644 44.0431 7.21201 45.2465 6.78224 50.0815C6.09458 49.338 5.86681 48.4225 5.81095 47.6189C4.32392 48.3066 3.20651 50.3651 2.92285 52.5698C1.74956 47.3051 6.01293 43.9013 11.3336 43.9013ZM33.5099 49.6259C39.0626 48.9382 46.6139 49.5701 52.7939 46.5058C55.682 45.0745 58.6002 42.6722 58.6002 39.4103C58.6002 35.4907 53.7652 31.627 53.7652 23.3022C53.7652 17.8655 56.1677 11.5994 62.5197 8.1956C58.4843 11.6854 56.5675 15.6909 56.5675 20.5559C56.5675 25.4209 58.4843 30.5997 64.9525 33.144C69.5295 34.9448 73.7927 35.005 75.6237 38.8085C73.9949 37.5191 71.932 37.0937 70.4749 37.0937C61.1747 37.0937 57.6548 54.4911 46.7557 59.4378C49.0722 53.3993 42.0927 51.4567 35.6545 51.5985C30.3897 51.7147 22.3487 53.1459 22.2628 61.4705C20.7757 55.8922 23.9776 50.7992 33.5056 49.6259H33.5099ZM76.5433 21.4155C76.5433 20.9298 76.8315 20.1004 76.8315 19.3826C76.8315 19.0088 76.7455 18.5532 76.2899 17.8397C75.6324 16.8384 74.3731 15.0935 73.1697 13.8042C71.5665 12.1152 70.1654 11.6295 67.991 11.7713C69.7659 10.8 70.1654 9.88461 70.1654 8.85314C70.1654 7.9678 69.6799 7.02231 68.8763 6.13696C70.0193 6.33896 73.0837 7.5982 73.0837 9.25714C73.0837 9.60095 72.9117 9.91469 72.568 10.2585L79.9215 19.4729C79.6635 19.8726 79.092 19.7007 78.6064 19.7007C78.2926 19.7007 78.0907 19.9027 78.0907 20.2465C78.0907 20.874 78.5762 21.6476 78.8642 22.0773C78.6364 22.2192 78.2066 22.3911 77.7467 22.3911C77.1752 22.3911 76.5433 22.1891 76.5433 21.4198V21.4155Z" fill="black"/>
<path d="M125.04 72.8854V37.4369C125.04 35.4547 124.575 33.1911 123.893 30.3694H135.296C134.614 33.1911 134.149 35.4504 134.149 37.4325V71.858H146.639C150.821 71.858 153.455 71.6705 156.243 70.8989L153.421 79.9485H123.893C124.575 77.1268 125.04 74.8675 125.04 72.8854Z" fill="black"/>
<path d="M161.878 72.8851V37.4366C161.878 35.4544 161.413 33.1911 160.731 30.3734H172.134C171.452 33.1954 170.987 35.4544 170.987 37.4366V71.8621H183.477C187.659 71.8621 190.293 71.6745 193.081 70.903L190.263 79.9528H160.731C161.413 77.1309 161.878 74.8716 161.878 72.8894V72.8851Z" fill="black"/>
<path d="M194.317 55.1611C194.317 41.0005 204.696 29.7512 219.633 29.7512C234.569 29.7512 244.948 41.0005 244.948 55.1611C244.948 69.3219 234.569 80.5709 219.633 80.5709C204.696 80.5709 194.317 69.3219 194.317 55.1611ZM235.746 55.1611C235.746 44.9349 229.672 37.8717 219.633 37.8717C209.594 37.8717 203.52 44.9349 203.52 55.1611C203.52 65.3873 209.594 72.4507 219.633 72.4507C229.672 72.4507 235.746 65.3873 235.746 55.1611Z" fill="black"/>
<path d="M263.105 61.6061C255.512 53.8608 248.913 43.3234 245.566 30.3734H256.041C256.195 32.6028 256.599 34.6489 257.435 37.0358C259.821 43.852 263.445 49.5554 267.596 54.3894C271.872 49.7729 275.808 43.852 278.193 37.0358C279.029 34.6489 279.434 32.6071 279.588 30.3734H289.751C286.433 43.3277 279.806 53.8608 272.212 61.6061V79.9485H263.105V61.6061Z" fill="black"/>
<path d="M297.179 72.8851V37.4366C297.179 35.4544 296.714 33.1911 296.034 30.3734H312.765C328.661 30.3734 338.697 40.5357 338.697 55.161C338.697 69.7862 328.661 79.9485 312.765 79.9485H296.034C296.714 77.1265 297.179 74.8673 297.179 72.8851ZM329.499 55.131C329.499 44.3805 323.396 38.4596 312.147 38.4596H306.288V71.8621H312.147C323.396 71.8621 329.499 65.9455 329.499 55.131Z" fill="black"/>
<path d="M344.957 77.1604L344.804 67.2453C351.094 71.3035 355.307 73.162 360.203 73.162C365.78 73.162 369.344 70.9624 369.344 66.9938C369.344 64.3596 367.825 62.3135 362.833 60.3014L354.871 57.1086C347.527 54.1631 344.246 50.1051 344.246 43.7536C344.246 35.1687 350.938 29.7466 361.257 29.7466C366.649 29.7466 371.73 31.4516 374.676 32.8454V42.3897C369.1 38.7023 365.008 37.1849 360.826 37.1849C355.621 37.1849 353.049 39.231 353.049 42.3598C353.049 45.4886 354.689 47.07 358.594 48.6813L368.602 52.7395C374.429 55.0925 378.24 59.338 378.24 65.8174C378.24 74.3087 371.608 80.5663 359.803 80.5663C353.607 80.5663 348.248 78.6139 344.962 77.156L344.957 77.1604Z" fill="black"/>
</svg>
