<svg width="403" height="163" viewBox="0 0 403 163" fill="none" xmlns="http://www.w3.org/2000/svg">
<path d="M396.787 86.235V86.0335C396.787 85.6977 396.855 85.3619 396.855 85.0261C396.922 83.75 396.922 82.4068 396.922 81.0636C396.922 39.6923 363.274 6.04462 321.903 6.04462H80.996C39.6247 6.04462 5.23825 39.6923 5.97702 81.0636C6.04418 83.4814 6.1785 85.8992 6.37999 88.1827C10.0738 127.741 38.6845 146.076 69.3771 153.329C101.144 160.784 141.508 156.687 198.864 144.867C274.353 129.285 312.232 150.978 327.007 156.687C326.94 156.687 393.228 147.15 396.787 86.235Z" fill="#EA7724"/>
<path d="M80.9963 6.0445C39.6251 6.0445 5.23857 39.6922 5.97734 81.0635C6.0445 83.4813 6.17882 85.8991 6.3803 88.1825C10.0742 127.74 38.6848 146.075 69.3774 153.329C80.2575 155.881 92.145 157.09 105.376 157.09C130.763 157.09 161.119 152.657 198.797 144.867C218.072 140.904 234.93 139.359 249.571 139.359C292.151 139.359 315.926 152.456 326.94 156.687C326.94 156.687 393.161 147.15 396.788 86.302V86.1005C396.788 85.7647 396.855 85.4289 396.855 85.0931C396.922 83.8171 396.922 82.4738 396.922 81.1306C396.922 39.7594 363.274 6.11166 321.903 6.11166H80.9963M106.45 163H103.831C90.3988 162.933 78.7128 161.59 67.967 159.037C16.4545 146.949 2.82077 114.107 0.402967 88.6527C0.134322 86.1677 0 83.6156 0 81.0635C0 80.9291 0 80.862 0 80.7277V78.5785C0.268644 58.2958 8.32798 39.1549 22.7676 24.4466C38.0132 8.93243 59.2361 0 80.9963 0H322.037C366.364 0 402.429 35.7297 402.967 79.9217V82.0037C402.967 83.0783 402.899 84.1529 402.899 85.2274L402.832 86.5035C399.004 151.515 328.552 162.396 327.881 162.463L326.336 162.664L324.858 162.06C323.314 161.455 321.5 160.717 319.418 159.776C307.061 154.471 285.166 145.068 249.638 145.068C235.4 145.068 218.945 146.546 200.073 150.508C160.381 158.903 130.561 162.866 106.45 163Z" fill="#B9511D"/>
<path d="M396.787 86.235V86.0335C396.787 85.6977 396.855 85.3619 396.855 85.0261C396.922 83.75 396.922 82.4068 396.922 81.0636C396.922 39.6923 363.274 6.04462 321.903 6.04462H80.996C39.6247 6.04462 5.23825 39.6923 5.97702 81.0636C6.04418 83.4814 6.1785 85.8992 6.37999 88.1827C10.0738 127.741 38.6845 146.076 69.3771 153.329C101.144 160.784 141.508 156.687 198.864 144.867C274.353 129.285 312.232 150.978 327.007 156.687C326.94 156.687 393.228 147.15 396.787 86.235Z" fill="#EA7724"/>
<path d="M327.477 151.515L326.806 151.247C322.44 149.366 318.142 147.486 313.777 145.874C309.411 144.195 305.046 142.717 300.546 141.374C283.957 136.471 266.697 134.322 249.436 134.322C245.675 134.322 241.914 134.389 238.153 134.591C216.46 135.733 195.439 140.501 174.149 144.329C162.53 146.411 150.911 148.225 139.225 149.165C132.71 149.702 126.061 150.038 119.48 150.038C119.144 150.038 118.808 150.038 118.472 150.038C114.107 150.038 109.674 149.904 105.309 149.635C110.01 149.366 114.711 148.896 119.412 148.426C141.105 146.008 162.664 141.911 184.089 137.815C204.371 133.919 224.587 130.024 245.272 129.621C247.019 129.554 248.832 129.554 250.578 129.554C267.906 129.554 285.3 131.904 301.889 136.807C306.456 138.15 310.956 139.695 315.456 141.441C319.687 143.053 323.918 144.866 328.149 146.68C328.149 146.68 331.843 145.874 335.201 144.732C337.82 143.859 340.44 143.053 342.992 142.046C358.036 136.068 373.819 125.121 380.871 110.01C387.452 95.9732 389.602 79.0486 386.378 63.8702C385.236 58.4301 383.423 53.1244 381.005 48.0201C384.027 52.7886 386.512 57.8928 388.258 63.3329C392.691 77.1009 392.758 92.2793 387.721 105.913C386.714 108.667 385.505 111.286 384.094 113.905C383.423 115.181 382.617 116.39 381.878 117.666C381.072 118.942 380.199 120.084 379.393 121.293C370.729 133.046 358.103 141.173 344.671 146.478C341.984 147.553 339.298 148.493 336.544 149.299C333.791 150.105 331.037 150.844 328.149 151.448L327.477 151.515Z" fill="#E16226"/>
<path d="M273.144 103.294H261.928V59.7063C261.928 59.7063 262.331 49.8336 258.838 44.6622C258.637 44.3264 258.838 43.9234 259.241 43.9234H261.189C262.062 43.9234 263.204 43.9234 264.413 43.9234C266.831 43.9234 269.719 44.0577 272.069 44.7965C274.285 45.5353 276.099 46.6098 278.248 49.0948C278.785 47.7516 280.531 45.7368 282.143 44.5279C283.889 43.1846 286.374 42.4459 289.061 42.4459C292.15 42.4459 295.441 43.4533 298.06 45.7368C301.284 48.5575 303.03 54.602 299.068 60.2436C299.001 60.3107 298.934 60.3779 298.799 60.3779C298.732 60.3779 298.665 60.3779 298.598 60.3107C295.24 56.6169 291.882 55.5423 289.195 55.5423C286.24 55.5423 284.024 56.8183 283.084 57.6243C280.464 59.9078 279.054 64.2732 279.054 68.3029V97.5851C279.054 100.675 276.435 103.294 273.144 103.294ZM360.05 104.033C357.498 104.033 344.334 103.428 344.334 91.3391V65.8851C344.334 64.0717 344.267 62.3255 344.133 60.7137C343.999 59.1018 343.663 57.7586 343.126 56.6169C342.588 55.4751 341.715 54.602 340.506 53.9976C339.297 53.3931 337.551 53.0573 335.402 53.0573C332.313 53.0573 329.626 53.7289 327.41 55.005C325.194 56.281 324.052 57.8929 324.052 59.8406V97.4508C324.052 100.675 321.433 103.294 318.209 103.294H306.993V56.1467C306.993 56.1467 307.127 47.7516 303.568 44.998C303.098 44.6622 303.433 43.8563 304.038 43.8563L312.634 43.7219C315.254 43.7219 317.604 44.1921 319.552 45.1995C321.5 46.1397 322.306 47.2815 322.843 48.0874C322.171 47.1471 329.425 44.0577 330.163 43.7891C333.589 42.6473 337.618 41.9757 341.581 41.9757C344.939 41.9757 348.297 42.4459 351.252 43.6548C356.155 45.6024 359.379 49.8336 360.52 54.9378C360.923 56.8855 361.192 58.9675 361.326 61.1838C361.461 63.4673 361.528 65.6836 361.528 67.8328V88.1154C361.528 88.1154 361.125 97.9209 364.617 103.16C364.684 103.227 364.684 103.294 364.684 103.361V103.495C364.684 103.697 364.483 103.965 364.214 103.965H360.52C360.453 104.033 360.319 104.033 360.05 104.033ZM155.142 104.839C149.164 104.839 144.799 103.697 141.911 101.346C139.09 98.9955 137.21 95.9061 136.337 92.0779C135.934 90.1302 135.665 88.0483 135.531 85.8319C135.396 83.5485 135.329 81.3321 135.329 79.183V58.9003C135.329 58.9003 135.732 49.0948 132.24 43.8563C132.038 43.5204 132.24 43.1175 132.576 43.1175H136.269C136.269 43.1175 136.404 43.1175 136.672 43.1175C139.224 43.1175 152.388 43.7219 152.388 55.8109V81.265C152.388 83.0783 152.455 84.8245 152.59 86.4364C152.724 88.0483 153.06 89.3915 153.597 90.5332C154.134 91.675 155.007 92.548 156.216 93.1525C157.425 93.8241 159.171 94.0928 161.32 94.0928C164.41 94.0928 167.096 93.4211 169.38 92.1451C171.596 90.869 172.738 89.2571 172.738 87.3095V49.6993C172.738 46.4755 175.357 43.8563 178.581 43.8563H189.797V91.0033C189.797 91.0033 189.662 99.3985 193.222 102.152C193.692 102.488 193.356 103.294 192.752 103.294L184.155 103.428C181.536 103.428 179.185 102.958 177.238 101.951C175.29 101.01 174.484 99.8686 173.947 99.0627C172.805 100.473 170.387 102.085 167.231 103.227C164.141 104.1 160.112 104.839 155.142 104.839ZM225.862 50.6395C215.049 50.841 213.37 65.2806 213.37 73.4743C213.37 78.8472 213.84 84.4887 215.922 89.5258C216.863 91.7421 218.139 93.5555 219.751 94.8987C221.363 96.2419 223.444 96.9135 225.862 96.9135C228.28 96.9135 230.362 96.2419 231.974 94.8987C233.586 93.5555 234.929 91.7421 235.802 89.5258C237.884 84.5559 238.354 78.8472 238.354 73.4743C238.354 65.3478 236.675 50.9082 225.862 50.6395ZM225.862 105.174H225.728C217.803 105.174 209.811 102.958 204.236 97.115C198.326 90.9362 196.244 82.0038 196.244 73.6758C196.244 65.2806 198.796 56.6169 204.707 50.438C210.214 44.6622 218.004 42.2444 225.862 42.1101C233.653 42.1772 241.444 44.6622 247.018 50.438C252.928 56.6169 255.413 65.2806 255.413 73.6758C255.413 82.0038 253.331 90.9362 247.421 97.115C241.779 103.025 233.854 105.174 225.862 105.174ZM82.8092 39.6923C68.4367 39.6923 56.7506 54.8035 56.7506 73.4743C56.7506 92.1451 68.4367 107.256 82.8092 107.256C87.5776 107.256 92.0102 105.577 95.9056 102.689C90.4655 96.8463 83.2793 89.9959 76.2274 88.5855C75.6901 88.4512 75.6229 87.7796 76.093 87.511C79.9212 85.4961 83.5479 84.6902 86.8388 84.6902C94.831 84.6902 101.077 89.2572 104.368 92.0779C107.323 94.5629 110.077 97.2493 112.897 99.9358C112.024 97.2493 109.203 93.5555 105.644 89.7944C107.726 84.9588 108.868 79.3845 108.868 73.4743C108.868 54.8035 97.1816 39.6923 82.8092 39.6923ZM144.396 129.688H143.254C139.157 129.621 135.06 129.084 131.232 128.076C121.024 125.39 112.763 119.144 105.644 112.764C98.9278 116.726 91.07 118.942 82.742 118.942C57.6237 118.942 37.2739 98.5925 37.2739 73.4743C37.2739 48.356 57.6237 28.0062 82.742 28.0062C107.86 28.0062 128.21 48.356 128.21 73.4743C128.21 85.026 123.845 95.6375 116.726 103.63C121.36 107.928 126.128 111.756 131.568 114.04C137.008 116.323 144.262 117.935 151.448 117.935C159.306 117.935 167.231 115.987 172.805 110.682C172.872 110.614 173.007 110.547 173.074 110.547C173.275 110.547 173.544 110.749 173.477 111.017C169.984 124.114 157.358 129.554 144.396 129.688Z" fill="#E16226"/>
<path d="M20.417 111.219C20.417 111.219 20.2155 110.883 19.8125 110.144C19.4095 109.473 18.8723 108.398 18.2006 107.055C16.9246 104.301 15.0441 100.137 13.7009 94.5628C13.0292 91.742 12.4248 88.5854 12.0218 85.1602C11.8875 83.414 11.686 81.6007 11.686 79.7202C11.6189 77.9068 11.686 75.892 11.7532 73.81C12.0218 69.7803 12.6934 65.4149 13.8352 60.9822C14.4396 58.7659 15.1784 56.5496 16.1858 54.3333C16.6559 53.1915 17.1932 52.1169 17.6634 50.9752C18.2006 49.8335 18.8051 48.7589 19.3424 47.6171C24.178 38.819 31.3642 30.2224 40.8339 23.6406C45.5352 20.2826 50.8409 17.529 56.4825 15.3798C62.1912 13.2978 68.2357 11.8203 74.5488 11.283C75.3547 11.2158 76.0935 11.1487 76.8994 11.0815C77.7054 11.0143 78.5113 11.0144 79.2501 11.0144C80.862 10.9472 82.3395 10.9472 83.8842 10.9472H293.83C296.248 10.9472 298.665 10.9472 300.949 10.9472C303.3 10.88 305.583 10.88 307.799 11.0144C312.232 11.2158 316.463 11.3502 320.426 11.5516C324.388 11.686 328.283 12.0218 331.641 12.6934C335.067 13.365 338.156 14.2381 340.91 15.1112C346.35 16.9917 350.379 19.1409 352.999 20.6184C354.275 21.4243 355.282 22.0288 355.954 22.4989C356.625 22.9019 356.961 23.1705 356.961 23.1705C356.961 23.1705 356.625 22.969 355.887 22.6332C355.215 22.2303 354.14 21.7601 352.797 21.0885C350.044 19.8125 345.88 18.1334 340.44 16.8574C335 15.5141 328.216 14.641 320.426 15.1112C316.463 15.3127 312.232 15.447 307.799 15.6485C305.583 15.7828 303.3 15.7828 300.949 15.7156C298.598 15.7156 296.248 15.7156 293.83 15.7156H84.0857C82.541 15.7156 80.9963 15.7156 79.5187 15.7828C78.78 15.7828 78.0412 15.7828 77.3024 15.85L75.0861 16.0514C69.2431 16.5216 63.5344 17.9319 58.2287 19.8125C52.9229 21.8273 47.953 24.3794 43.5875 27.536C34.7223 33.7148 28.0062 41.707 23.5064 49.9678C22.9691 51.0424 22.4318 52.0498 21.8945 53.0572C21.4244 54.1318 20.9543 55.1392 20.5513 56.2138C19.7454 58.2958 19.0066 60.3778 18.335 62.3926C16.9246 66.4223 15.9843 70.4519 15.447 74.2801C15.1784 76.1606 14.9769 77.974 14.9098 79.8545C14.7754 81.6678 14.7754 83.414 14.7754 85.0931C14.8426 88.4511 15.1112 91.5405 15.5142 94.2941C16.3873 99.8685 17.6634 104.1 18.6708 106.988C19.2081 108.398 19.611 109.473 19.9468 110.211C20.2826 110.95 20.417 111.219 20.417 111.219Z" fill="#F3AF6A"/>
<path d="M364.014 39.1551H361.864V45.0652H359.648V39.1551H357.499V37.2074H364.014V39.1551ZM365.223 45.0652V37.2074H366.7L369.319 40.5654L371.939 37.2074H373.416V45.0652H371.2V41.5057L369.789 43.3191H368.849L367.439 41.5057V45.0652H365.223Z" fill="white"/>
<path d="M169.179 107.055C158.5 117.129 139.292 115.114 127.942 110.346C122.502 108.062 117.733 104.234 113.099 99.9357C120.218 91.9435 124.584 81.332 124.584 69.7803C124.584 44.6621 104.234 24.3123 79.1155 24.3123C53.9973 24.3123 33.6475 44.6621 33.6475 69.7803C33.6475 94.8986 53.9973 115.248 79.1155 115.248C87.4435 115.248 95.3013 112.965 102.017 109.07C109.137 115.45 117.397 121.696 127.606 124.382C143.792 128.681 165.149 124.92 169.85 107.458C169.917 107.055 169.447 106.786 169.179 107.055ZM100.674 88.4511C95.973 84.4886 85.4287 76.9665 72.3994 83.8841C71.9293 84.1528 71.9965 84.8244 72.5337 84.9587C79.5857 86.3691 86.7047 93.2867 92.2119 99.0626C88.3838 101.95 83.884 103.63 79.1155 103.63C64.7431 103.63 53.057 88.5183 53.057 69.8475C53.057 51.1767 64.7431 36.0654 79.1155 36.0654C93.488 36.0654 105.174 51.1767 105.174 69.8475C105.174 75.7577 104.032 81.332 101.95 86.1676C105.443 89.9287 108.263 93.6225 109.204 96.3089C106.383 93.6225 103.629 90.9361 100.674 88.4511Z" fill="white"/>
<path d="M189.662 98.2568C190.133 98.5926 189.797 99.3985 189.192 99.3985L180.596 99.5328C177.909 99.5328 175.626 99.0627 173.678 98.1224C171.73 97.1822 170.925 96.0404 170.387 95.2345C169.245 96.5777 166.828 98.2568 163.671 99.3985C160.447 100.473 156.418 101.212 151.448 101.212C145.47 101.212 141.105 100.07 138.217 97.7195C135.329 95.3688 133.516 92.2794 132.643 88.4512C132.24 86.5036 131.971 84.4216 131.837 82.1381C131.702 79.8546 131.635 77.6383 131.635 75.4891V55.2065C131.635 55.2065 132.038 45.401 128.546 40.1624C128.344 39.8266 128.546 39.4236 128.949 39.4236H132.643C132.643 39.4236 148.761 38.6849 148.761 52.1171V77.5711C148.761 79.3845 148.828 81.1307 148.963 82.7425C149.097 84.3544 149.433 85.6976 149.97 86.8394C150.508 87.9811 151.381 88.8542 152.59 89.4587C153.798 90.0631 155.545 90.3989 157.694 90.3989C160.783 90.3989 163.47 89.7273 165.686 88.4512C167.902 87.1752 169.044 85.5633 169.044 83.6156V46.0054C169.044 42.7817 171.663 40.1624 174.954 40.1624H186.17V87.3095C186.237 87.108 186.103 95.5032 189.662 98.2568Z" fill="white"/>
<path d="M360.52 100.339H356.827C356.827 100.339 340.708 101.078 340.708 87.7125V62.2585C340.708 60.4451 340.641 58.6989 340.506 57.087C340.372 55.4752 340.036 54.1319 339.499 52.9902C338.962 51.8485 338.089 50.9754 336.88 50.3709C335.671 49.7665 333.925 49.4307 331.776 49.4307C328.686 49.4307 326 50.1023 323.783 51.3783C321.567 52.6544 320.425 54.2663 320.425 56.214V93.8242C320.425 97.0479 317.806 99.6672 314.582 99.6672H303.366V52.5201C303.366 52.5201 303.501 44.125 299.941 41.3713C299.471 41.0355 299.807 40.2296 300.411 40.2296L309.008 40.0953C311.694 40.0953 313.978 40.5654 315.926 41.5728C317.873 42.5131 318.679 43.6548 319.216 44.4608C318.545 43.5877 325.798 40.4311 326.47 40.1625C332.85 38.0805 341.245 37.476 347.558 40.0281C352.461 41.9758 355.752 46.2069 356.827 51.3112C357.23 53.2589 357.498 55.3409 357.633 57.6243C357.767 59.9078 357.834 62.1241 357.834 64.2733V84.5559C357.834 84.5559 357.431 94.3615 360.923 99.6C361.058 99.8687 360.856 100.339 360.52 100.339Z" fill="white"/>
<path d="M295.441 56.4824C295.307 56.6839 295.105 56.6839 294.971 56.5496C287.986 48.9604 281.203 52.3184 279.457 53.8632C276.837 56.1466 275.427 60.5121 275.427 64.5418V93.824C275.427 97.0477 272.808 99.667 269.517 99.667H258.301V56.0795C258.301 56.0795 258.704 46.2068 255.211 41.0354C255.01 40.6996 255.211 40.2966 255.614 40.2966H257.562C260.248 40.2966 264.883 40.028 268.442 41.1697C270.658 41.9085 272.472 42.9831 274.621 45.468C275.225 44.1248 276.904 42.1099 278.516 40.901C282.277 37.946 289.598 37.8788 294.433 42.0428C297.657 44.7964 299.336 50.8409 295.441 56.4824Z" fill="white"/>
<path d="M243.325 46.8114C237.817 41.0355 230.027 38.6177 222.169 38.4834C214.311 38.5506 206.52 41.0355 201.013 46.8114C195.103 52.9902 192.551 61.654 192.551 70.0491C192.551 78.3771 194.633 87.3095 200.543 93.4883C206.184 99.3985 214.109 101.548 222.035 101.548H222.169C230.094 101.548 238.019 99.3314 243.66 93.4883C249.571 87.3095 251.653 78.3771 251.653 70.0491C251.72 61.654 249.235 52.9902 243.325 46.8114ZM232.176 85.8991C231.236 88.1154 229.96 89.9288 228.348 91.272C226.736 92.6152 224.654 93.2868 222.236 93.2868C219.751 93.2868 217.736 92.6152 216.124 91.272C214.512 89.9288 213.169 88.1154 212.296 85.8991C210.214 80.9292 209.744 75.2205 209.744 69.8476C209.744 61.654 211.423 47.2143 222.236 47.0128C233.049 47.2143 234.728 61.654 234.728 69.8476C234.661 75.2205 234.191 80.862 232.176 85.8991Z" fill="white"/>
</svg>
