<svg width="207" height="41" viewBox="0 0 207 41" fill="none" xmlns="http://www.w3.org/2000/svg">
<path fill-rule="evenodd" clip-rule="evenodd" d="M192.665 0.0713044C181.034 6.75609 168.65 11.7028 154.82 11.1012C145.144 10.6199 136.204 8.40054 126.871 6.77837C120.714 5.69989 114.558 7.19728 109.766 11.3998L107.371 13.5612H107.228C113.826 6.1188 122.619 3.23543 131.952 4.13565L137.082 4.79522L149.935 7.02348C160.928 8.80609 173.535 8.46293 183.702 4.08217C186.758 2.90797 189.738 1.5446 192.624 0L192.665 0.0713044Z" fill="#D3292E"/>
<path fill-rule="evenodd" clip-rule="evenodd" d="M205.981 15.179L205.491 17.3404C205.098 17.2824 204.808 16.8011 204.415 16.6808C203.34 16.1416 201.922 15.7226 200.699 16.2619C200.459 16.4436 200.377 16.768 200.503 17.0418L200.949 17.4607C202.952 18.7976 206.664 18.7976 206.521 22.6213C206.276 24.1811 205.004 24.961 203.934 25.4423C201.391 26.1019 198.411 25.683 195.872 25.2017C195.725 24.8407 195.921 24.4218 195.921 24.0029L196.019 22.5634C197.438 23.9449 199.539 24.7917 201.297 23.7043C201.565 23.414 201.659 23.0033 201.542 22.6258L201.052 22.1445C199.196 21.124 196.506 20.9457 195.725 18.1826C195.529 17.1621 195.921 16.5025 196.408 15.843C198.46 14.2208 201.052 14.5818 203.492 14.7645L205.981 15.179Z" fill="black"/>
<path fill-rule="evenodd" clip-rule="evenodd" d="M194.694 15.0007L191.125 25.5047H185.705L185.901 24.7827C185.41 23.2809 185.071 21.5428 184.483 20.0989C183.702 21.8414 183.113 23.6998 182.479 25.5002L177.126 25.5582C177.306 25.2051 177.341 24.7959 177.224 24.4173L174.779 16.4936L173.887 15.0542C175.792 15.0542 177.599 14.9338 179.41 15.0542L181.61 22.6302C182.439 21.2487 182.734 19.3903 183.367 17.8885C183.589 17.2363 183.536 16.522 183.22 15.9098L182.636 15.0185H187.962C188.792 17.5409 189.301 20.1792 190.26 22.5946L190.456 22.296L192.067 17.4919C192.239 16.6184 192.006 15.7138 191.433 15.0319C192.517 14.9323 193.608 14.9219 194.694 15.0007Z" fill="black"/>
<path fill-rule="evenodd" clip-rule="evenodd" d="M88.3659 15.6602C88.1696 16.4401 87.9733 17.22 87.8305 18.0623C86.4431 17.0328 85.0958 16.3198 83.4318 16.5604C83.1575 16.5882 82.927 16.7781 82.8473 17.0417C82.651 17.523 83.1418 17.8216 83.3871 18.0043C85.243 19.2031 87.9331 19.1452 88.9101 22.0152C89.2046 23.1561 88.7629 23.9939 88.1294 24.8362C85.3456 27.1758 81.335 26.2177 78.114 25.674C78.114 24.7158 78.2121 23.9315 78.2612 22.9733C79.6799 24.3549 81.732 25.0724 83.4898 24.3103C83.8333 24.0696 84.0697 23.4948 83.8333 23.1694C82.66 21.9706 81.0495 21.8325 79.729 21.008C78.8009 20.475 78.1706 19.5444 78.0203 18.4856C77.9556 17.3923 78.5016 16.353 79.439 15.785C82.1559 14.5817 85.4839 15.2413 88.3659 15.6602Z" fill="black"/>
<path fill-rule="evenodd" clip-rule="evenodd" d="M10.2325 15.7226C10.0919 16.2007 9.9758 16.6856 9.88452 17.1755L9.75069 18.0668C8.41233 16.9259 6.62784 16.2842 4.96381 16.8056C4.69007 17.0154 4.60722 17.3916 4.76752 17.6969C5.36532 18.6818 9.16627 19.0338 10.6295 21.4805C10.8927 22.1474 10.9608 22.8754 10.8258 23.5795C9.79976 26.4005 7.15873 26.2222 4.96381 26.3425C3.30836 26.3084 1.6621 26.0871 0.0564845 25.683C0.201906 24.8503 0.267634 24.0057 0.252778 23.1606C1.59114 24.2391 3.13472 25.0813 4.89689 24.6C5.35708 24.4958 5.7283 24.1571 5.8739 23.7087C5.88871 23.3001 5.65904 22.9218 5.28948 22.7461C3.38454 21.5473 -0.233494 21.4849 0.0118725 17.7637C0.551679 15.482 2.6886 15.3617 4.36155 15.1834C6.31556 15.0631 8.3231 15.5399 10.2325 15.7226Z" fill="black"/>
<path fill-rule="evenodd" clip-rule="evenodd" d="M23.6205 15.7805L23.1298 18.0623C21.9565 16.9214 20.4531 16.3198 18.9273 16.8011C18.0976 17.1621 17.5087 18.2405 17.4596 19.3235C17.4105 20.9456 17.1652 22.8664 18.3518 23.9449C19.4761 25.1437 21.5282 24.903 22.7506 24.0652L23.7276 23.2229C23.7767 23.9449 23.7767 24.7248 23.7767 25.3843C20.6003 26.6455 15.9116 27.167 13.3196 23.8825C12.4093 22.4797 12.1263 20.761 12.5389 19.1408C13.4311 16.2574 15.9606 15.2992 18.2582 15.1789C20.1453 15.0007 21.8137 15.5399 23.6205 15.7805Z" fill="black"/>
<path fill-rule="evenodd" clip-rule="evenodd" d="M68.1346 15.2413C67.9874 16.2619 67.5502 17.1042 67.452 18.1247C66.4799 17.376 65.3048 16.9365 64.0794 16.8635L63.9321 16.9838L63.9812 25.0858C64.0639 25.3785 64.1791 25.661 64.3247 25.9281H58.5118L58.8553 24.9075C58.9044 22.0866 59.0025 19.7469 58.9044 16.9838C57.3868 16.9245 55.8921 17.3679 54.6528 18.245C54.9497 17.2981 55.194 16.3355 55.3845 15.3617C59.6806 15.4196 63.7849 15.7226 68.1346 15.2413Z" fill="black"/>
<path fill-rule="evenodd" clip-rule="evenodd" d="M52.7121 15.482L54.1307 15.3037C53.8437 16.2254 53.6318 17.1688 53.4972 18.1247C52.4221 17.4027 51.2666 16.8635 49.9283 16.9838C49.8301 19.7469 49.8792 22.4475 49.8792 24.9075L50.2718 25.986H44.5347C45.2663 24.2435 44.78 21.9038 44.9808 19.8627L44.8826 16.9838C43.388 16.9814 41.926 17.4201 40.6802 18.245L41.3137 15.3616C42.0453 15.3616 42.9242 15.482 43.6112 15.5399L52.7121 15.482Z" fill="black"/>
<path fill-rule="evenodd" clip-rule="evenodd" d="M127.946 25.8656H122.521C122.717 25.3842 122.717 24.8452 122.521 24.3638C122.03 23.1026 121.888 21.7211 121.299 20.5223C120.567 22.2024 120.027 24.0652 119.394 25.8032L119.246 25.9236H114.018C114.411 25.0323 113.871 24.1811 113.723 23.3432C112.648 20.7629 112.452 17.6389 110.792 15.4195L116.217 15.3616L116.414 15.6023C117.145 18.0623 117.636 20.5846 118.466 22.9243L118.711 22.6257C119.251 20.7629 120.179 19.1452 120.326 17.1041C120.228 16.4592 119.913 15.8667 119.434 15.424L124.711 15.3661L124.984 15.6602L126.987 22.9243L127.134 22.8664L128.825 18.0667C129.011 17.1057 128.761 16.1116 128.142 15.3527C129.199 15.3527 130.538 15.3081 131.564 15.3527L127.946 25.8656Z" fill="black"/>
<path fill-rule="evenodd" clip-rule="evenodd" d="M138.649 16.6228V24.3682C138.721 24.8684 138.872 25.3541 139.095 25.8077C137.239 25.928 135.236 25.8077 133.331 25.8701C133.577 25.3405 133.728 24.7718 133.777 24.19L133.679 16.449L133.286 15.3081H139.037L138.649 16.6228Z" fill="black"/>
<path fill-rule="evenodd" clip-rule="evenodd" d="M75.5133 15.3616C75.2145 15.8934 75.0607 16.4943 75.0671 17.1041C75.0671 19.8671 74.8708 22.8084 75.2144 25.3887L75.4597 25.928L69.6602 25.9859C69.8996 25.4539 70.0503 24.8864 70.1063 24.3058V16.6228C70.011 16.2053 69.861 15.8022 69.6602 15.424C71.5071 15.2992 73.6083 15.4195 75.5133 15.3616Z" fill="black"/>
<path fill-rule="evenodd" clip-rule="evenodd" d="M96.722 15.4196C96.0885 16.498 96.3294 18.0935 96.2759 19.4928L96.4722 19.524L100.09 19.5017C100.139 18.4233 100.336 16.859 99.943 15.9009L99.6396 15.3928H105.515C105.242 15.8941 105.077 16.4465 105.029 17.015L105.127 24.7604C105.182 25.1628 105.315 25.5504 105.52 25.9013H99.7199C100.501 24.7025 100.063 22.9154 100.166 21.3556L100.117 21.2353H96.3562C96.4053 22.7951 96.0618 24.6134 96.7488 25.9325H90.9492C91.2963 25.2423 91.465 24.4763 91.4399 23.7042L91.3418 16.5025L90.9492 15.424H96.7488L96.722 15.4196Z" fill="black"/>
<path fill-rule="evenodd" clip-rule="evenodd" d="M173.245 19.0829C173.6 20.6127 173.318 22.221 172.464 23.5394C170.019 26.5386 166.062 26.3024 162.837 25.7008C161.079 25.1616 158.978 24.0207 158.536 21.5607C158.34 20.0009 158.536 18.2584 159.513 17.0596C160.736 15.6781 162.364 15.277 163.836 14.8313C164.217 14.7913 164.6 14.7764 164.983 14.7868C168.11 14.8313 172.022 14.9472 173.245 19.0829ZM165.326 16.2619C164.434 16.4401 163.908 17.5231 163.716 18.4901C163.667 20.353 163.323 22.1534 164.349 23.7132C164.894 24.4352 165.854 24.7051 166.696 24.3728C167.247 24.0979 167.668 23.6178 167.869 23.0358C168.366 21.2053 168.349 19.2733 167.82 17.4518C167.404 16.488 166.338 15.9798 165.326 16.2619Z" fill="black"/>
<path fill-rule="evenodd" clip-rule="evenodd" d="M39.4532 18.3609C40.1834 20.0463 40.0928 21.9743 39.2079 23.584C36.5311 27.1848 30.7048 26.7526 28.4563 25.683C27.0868 25.0814 25.5744 23.9405 25.1327 22.1401C24.7987 20.725 24.9723 19.2378 25.6235 17.9376C27.6756 14.9962 31.0974 14.8759 34.2738 15.1745C36.2055 15.482 38.2799 16.2619 39.4532 18.3609ZM31.1955 16.9794C30.5069 17.5835 30.1295 18.4668 30.1695 19.3815C30.1248 21.124 29.7769 23.584 31.539 24.6045C32.2631 24.9187 33.0996 24.8272 33.7384 24.3639C34.2162 23.8464 34.5271 23.1974 34.6307 22.501C34.7288 20.5803 34.9251 18.6595 33.899 17.0997C33.1779 16.3364 31.9795 16.285 31.1955 16.9839V16.9794Z" fill="black"/>
<path fill-rule="evenodd" clip-rule="evenodd" d="M154.874 16.6229C156.145 17.5142 156.631 19.2032 156.631 20.9457C156.521 21.8726 156.186 22.7584 155.654 23.526C154.383 25.1482 152.625 25.625 150.818 25.7543C147.887 25.9325 144.956 25.8122 141.972 25.8746C142.507 25.1526 142.315 24.1945 142.365 23.2943L142.315 16.1638L141.923 15.2725C146.317 15.6602 151.108 14.2787 154.874 16.6229ZM147.397 16.7432V24.1276L147.544 24.248C148.882 24.3059 150.426 24.3683 151.113 22.7461C151.559 21.4092 151.648 19.3859 151.015 18.1247C150.23 16.5605 148.762 16.6229 147.392 16.7298L147.397 16.7432Z" fill="black"/>
<path fill-rule="evenodd" clip-rule="evenodd" d="M97.5027 28.3167C92.6668 33.357 87.0456 36.9 80.7419 37.9205C71.3734 39.36 62.451 36.3607 53.3769 35.0416C43.4106 33.2991 32.3155 32.7599 22.5946 35.5229C17.7597 36.799 13.0767 38.592 8.62654 40.8707C8.47932 40.8128 8.52393 40.8707 8.52393 40.737L11.7494 39.0569C22.6972 33.5932 34.2249 29.872 47.1758 30.6519C51.855 30.9145 56.5094 31.5102 61.1037 32.4345L74.0055 35.1352C80.8446 36.9178 88.5669 35.8572 93.9917 30.9951L97.2172 28.2944H97.5116L97.5027 28.3167Z" fill="black"/>
</svg>
