<svg width="408" height="183" viewBox="0 0 408 183" fill="none" xmlns="http://www.w3.org/2000/svg">
<path d="M403.2 22.53C396.01 22 385.38 23.67 379.82 26.19C374.74 28.5 370.24 31.82 366.45 36.06C363.56 39.29 361.1 43.02 359.13 47.17C358.89 47.67 358.19 47.67 357.95 47.17C355.64 42.34 352.22 34.78 351.42 33.18C350.71 31.67 349.55 30.78 347.87 31.14C344.45 31.68 323.03 34.72 312.7 36.19C312.28 36.25 311.99 35.78 312.23 35.43C315.42 30.75 316.95 25.18 316.46 19.87C315.96 14.5 313.44 9.67999 309.36 6.28999C305.08 2.73999 299.23 0.859985 292.45 0.859985C292.15 0.859985 291.85 0.859985 291.54 0.869985C285.29 1.01999 279.09 2.81999 274.07 5.95999C267.81 9.86999 263.86 15.49 262.65 22.22C261.09 30.88 264 36.56 266.71 39.8C267.43 40.66 268.21 41.45 269.07 42.17C269.34 42.4 269.22 42.84 268.87 42.88C262.7 43.75 229.17 48.49 227.6 48.82C225.91 49.18 225.64 49.74 224.94 52.02C222.54 59.76 215.41 82.69 214.28 86.36C214.19 86.66 213.75 86.62 213.71 86.31C212.92 79.29 210.21 55.7 209.97 53.98C209.7 52.11 208.4 51.65 206.54 51.92C205.66 52.05 166.43 57.72 165.21 57.94C163.99 58.17 163.03 58.67 162.46 60.69C161.91 62.62 155.84 80.38 150.93 94.95C150.79 95.36 150.19 95.29 150.16 94.86C149.57 87.72 147.95 68.76 147.59 64.67C159.04 57.34 161.44 46.28 162.24 44.06C162.94 42.11 162.26 40.73 160.41 39.48C160.41 39.48 133.26 19.27 131.58 18.05C129.9 16.83 128.41 17.38 127.61 18.89C120.75 31.85 112.72 35.36 100.87 36.1C98.7798 36.23 96.6598 36.29 94.3698 36.29C87.1398 36.29 79.6698 35.63 72.4498 34.99C69.4198 34.72 66.2898 34.44 63.1798 34.22H63.1498C58.8498 33.92 53.9798 33.58 49.0298 33.58C39.0098 33.58 31.1498 35.02 24.2798 38.12L24.2398 38.14C13.9498 42.87 4.73983 51.69 0.319828 66.25C-0.340172 68.41 0.629828 68.92 1.91983 69.91C4.48983 71.88 28.4598 89.23 32.1998 91.72C34.0298 92.94 36.1698 92.94 36.7798 90.65C37.3598 88.46 41.2898 77.37 49.2398 71.95C49.6598 71.66 50.2198 72.04 50.1198 72.54C46.5098 90.78 29.4198 176.78 28.7798 179.51C28.3098 181.49 29.9798 182.43 31.8498 182.11C34.9498 181.59 78.4198 175.44 80.8098 175.08C82.8898 174.76 83.3098 174.25 83.8798 172.01C84.2598 170.54 92.2898 130.13 98.2598 100.08C98.3398 99.67 98.9398 99.69 98.9898 100.11C102.48 129.7 107.16 166.63 107.43 168.53C107.72 170.58 108.46 171.13 110.79 170.6C113.12 170.07 148.36 165.45 150.58 165C152.61 164.59 153.27 163.35 154.13 161.8C154.99 160.25 166.86 134.81 168.73 130.45C169.04 129.72 170.08 129.77 170.19 130.55C171.6 141.14 173.32 155.75 173.58 157.89C173.85 160.02 174.75 161.15 176.78 160.82C178.81 160.49 211.06 155.96 213.82 155.49C216.58 155.02 217.2 154.42 218.26 152.11C218.94 150.64 237.64 112.81 251.46 84.87C251.6 84.59 252.02 84.74 251.96 85.04C250.02 94.77 241.55 137.12 239.29 148.18C238.85 150.32 240.13 151.65 241.92 151.28C243.71 150.91 291.57 144.02 293.47 143.72C304.18 142.06 316.46 138.75 324.68 133.04C331.43 128.35 335.1 122.22 336.46 119.66C336.7 119.22 337.34 119.23 337.55 119.69C339.77 124.47 343.18 131.52 343.96 133.35C344.81 135.33 345.49 136.06 347.62 135.71C352.43 134.92 389.67 129.51 393 129.08C396.43 128.32 395.09 125.4 395.06 125.34C389.93 114.35 374.39 81.69 374.43 81.58C376.79 75.61 382.07 70.39 393.97 72.34C396.19 72.7 397.97 73.05 398.41 70.3C398.76 68.15 407.06 26.12 407.2 25.44C407.56 22.95 405.78 22.51 403.2 22.51V22.53ZM300.78 94.39C303.26 81.8 305.82 68.77 307.87 58.42C307.93 58.12 308.33 58.08 308.46 58.35C310.48 62.68 319.23 81.35 321.1 85.33C321.32 85.8 321.29 86.35 321.03 86.8C316.44 94.45 310.34 95.58 301.07 94.77C300.89 94.75 300.75 94.58 300.79 94.4L300.78 94.39Z" fill="white"/>
<path d="M291.68 7.17998C317.36 6.56998 315.24 36.68 292.32 40.99C279.09 43.48 266.28 37.66 268.86 23.33C270.79 12.59 282.11 7.40998 291.67 7.18998L291.68 7.17998Z" fill="#E4002B"/>
<path d="M132.16 26.44C135.15 28.61 150 39.85 154.79 43.39C155.57 43.97 155.6 44.34 155.35 45.09C152.42 54.05 144.98 60.61 136.08 63.02C125.29 65.94 110.72 63.53 102.44 61.3C100.46 60.77 99.7398 60.82 99.1598 62.6C97.3298 68.19 78.6598 165.83 78.2898 167.69C78.0598 168.85 77.8498 169.07 77.0898 169.17C63.5298 171.06 50.7998 173.12 37.1998 174.93C36.6698 175 36.2798 174.17 36.4098 173.53C38.0498 165.09 57.4498 68.63 58.5498 62.37C58.7398 61.3 58.1098 61.08 56.8398 61.45C45.0198 64.96 37.3898 72.36 33.3398 81.78C32.9498 82.68 32.5098 83.99 31.3398 83.15C23.4498 77.55 16.2598 72.46 8.75982 66.9C7.54982 66 7.24982 65.58 7.93982 63.79C11.4398 54.81 18.2198 47.86 26.8898 43.87C38.0098 38.86 50.8398 39.69 62.7198 40.51C75.5298 41.45 88.3698 43.2 101.26 42.4C113.82 41.62 123.4 37.65 130.46 26.81C130.89 26.15 131.47 25.93 132.16 26.43V26.44Z" fill="#E4002B"/>
<path d="M398.62 28.81C400.08 28.76 400.09 29.52 399.86 30.54C399.56 31.89 393.85 61.01 393.04 64.9C392.88 65.66 392.61 65.98 391.52 65.82C381.7 64.35 372.58 68.63 368.52 78.92C367.4 81.75 367.98 83.19 368.79 84.82C370.02 87.29 380.8 109.98 386.16 121.45C386.63 122.46 387.33 123.47 385.78 123.67C381.56 124.22 355.96 128.05 350.12 128.92C349.22 129.05 348.6 128.6 348.39 128.16C344.64 120.67 340.65 111.75 337.24 104.08C336.59 102.62 335.29 101.97 334.86 104.35C330.89 126.2 315.27 133.95 293.68 137.2C292.67 137.35 292.39 136.5 292.6 135.68C294.65 126.05 298.83 103.9 299.15 102.73C299.34 101.95 299.31 101.05 300.83 101.27C308.79 102.41 319.6 100.16 324.91 92.56C326.55 90.22 329.17 87.35 327.42 83.49C326.46 81.36 308.79 44.52 309.3 43.52C309.44 43.41 309.58 43.31 309.71 43.2C318.45 41.99 342.41 38.42 345.37 37.91C346.23 37.76 346.83 37.86 347.16 38.78C349.63 45.78 358.15 62.16 358.9 63.73C359.5 64.97 360.54 65 360.79 63.51C363.44 47.98 373.56 28.99 398.62 28.82V28.81Z" fill="#E4002B"/>
<path d="M303.05 44.18C303.86 44.07 304.13 44.78 304.02 45.32C299.25 69.15 286.26 135.64 285.95 136.83C285.78 137.47 285.57 138.58 284.27 138.72C275.24 139.7 250.68 143.51 248.66 143.91C247.65 144.03 246.67 143.91 246.87 142.94C251.94 118.14 264.8 52.28 265.27 50.73C265.48 50.04 265.81 49.65 266.68 49.54C272.52 48.81 291.42 45.98 303.04 44.18H303.05Z" fill="#E4002B"/>
<path d="M259.47 50.53C260.88 50.27 260.6 51.71 260.24 52.42C257.45 58.2 218.58 136.94 213.22 147.92C212.68 149.03 212.35 149.27 211.16 149.44C209.08 149.72 188.27 152.74 180.75 153.82C179.93 153.94 179.56 153.79 179.42 152.68C179.14 150.35 174.06 111.5 173.73 108.88C173.6 107.86 172.38 108.08 172.13 108.59C167.02 119.07 156.99 140.95 149.09 157.22C148.55 158.34 148.42 158.69 147.14 158.87C144.02 159.31 119.1 162.96 114.16 163.61C113.17 163.74 113.17 163.29 113.04 162.46C112.75 160.61 105.74 102.22 102.69 75.07C102.57 74.03 102.63 73.53 103.87 73.38C106.91 73 131.3 69.57 140.1 68.17C140.9 68.04 141.43 68.25 141.55 69.07C141.68 70 144.85 111.39 146.09 125.05C146.15 125.75 147.27 126.2 147.62 125.31C152.6 110.23 166.21 69.91 167.85 65.11C168.1 64.46 168.24 63.97 169.16 63.83C180.89 62.07 191.18 60.54 203.03 58.88C203.76 58.78 204.23 59.07 204.31 59.9C204.85 65.75 209.01 102.45 210.19 115.82C210.29 116.91 211.57 116.98 211.82 116.2C218.21 96.13 224.31 75.49 230.45 55.71C230.55 55.39 231.06 54.77 231.38 54.72C239.05 53.47 249.97 52.09 259.47 50.53Z" fill="#E4002B"/>
</svg>
