<svg viewBox="0 0 510 56" height="56" width="510" xmlns="http://www.w3.org/2000/svg" id="Layer_1"><path d="M192.08,1h-6.72l-17.8,41.19h8.96l3.48-8.51h17.24l3.48,8.51h9.17L192.08,1ZM183.12,26.09l5.48-13.54,5.48,13.54h-10.96Z"></path><path d="M232.38,1v13.33c-2.47-2.23-5.38-3.69-9.07-3.69-8.39,0-15,6.61-15,16.13,0,8.96,6.37,15.89,14.79,15.89,3.58,0,6.72-1.46,9.52-4.37v3.93h8.28V1.02h-8.51v-.02ZM225.11,34.81c-4.94,0-8.06-3.58-8.06-8.18,0-4.94,3.13-8.18,7.95-8.18,4.14,0,7.62,3.36,7.62,8.18,0,5.38-3.81,8.18-7.5,8.18Z"></path><path d="M267.98,1h-6.72l-17.8,41.19h8.96l3.48-8.51h17.24l3.48,8.51h9.19L267.98,1ZM259.02,26.09l5.48-13.54,5.48,13.54h-10.96Z"></path><path d="M313.9,8.85h-.12c-2.91,1.22-6.16,2.35-9.74,2.35-2.12,0-3.81-.56-6.82-.56-8.39,0-13.87,5.93-13.87,12.77,0,4.37,2.12,8.06,5.71,10.18l-1.9,5.83.12.12c2.35-1.13,4.92-2.12,8.72-2.12,4.37,0,6.82,2.23,6.82,5.38s-2.68,5.27-6.94,5.27c-3.81,0-6.82-1.34-9.97-3.93h-.12l-2.47,6.61c3.48,2.68,7.73,4.26,12.65,4.26,9.29,0,15.23-4.94,15.23-11.87,0-4.47-2.47-7.73-6.72-9.74,4.14-2.12,6.16-5.93,6.16-9.29,0-3.13-1.01-5.83-3.81-8.18l5.03.45,2.02-7.52ZM296.99,30.34c-3.58,0-5.71-3.13-5.71-6.49s2.12-6.61,5.71-6.61,5.71,3.13,5.71,6.61-2.14,6.49-5.71,6.49Z"></path><path d="M342.44,26.32c0-8.18-5.27-15.68-14.11-15.68s-15.12,6.82-15.12,16.13,7.17,15.89,15.45,15.89c4.47,0,8.39-1.34,10.98-2.8l1.9-7.73-.12-.12c-3.25,2.02-6.94,3.36-11.08,3.36s-7.5-1.9-8.63-5.93h20.48c.12-.68.23-2.23.23-3.13ZM321.73,23.52c.78-3.81,3.25-6.04,6.37-6.04s5.38,2.02,6.04,6.04h-12.42Z"></path></svg>