<?xml version="1.0" encoding="utf-8"?>
<!-- Generator: Adobe Illustrator 18.1.1, SVG Export Plug-In . SVG Version: 6.00 Build 0)  -->
<!DOCTYPE svg PUBLIC "-//W3C//DTD SVG 1.1//EN" "http://www.w3.org/Graphics/SVG/1.1/DTD/svg11.dtd">
<svg version="1.1" id="Layer_1" xmlns="http://www.w3.org/2000/svg" xmlns:xlink="http://www.w3.org/1999/xlink" x="0px" y="0px"
	 viewBox="0 0 20 30" enable-background="new 0 0 20 30" xml:space="preserve">
<path fill="#EACFAF" d="M17.4,10.1c-1-0.2-1.8-0.1-2.5,0.2c-0.7,0.2-1,0.6-1.4,0.8c-2.3-1.8-5.4-1.3-6.9,0c-1.7-1.3-3.2-1.2-3.9-1
	l4.7-4.8h5.4L17.4,10.1z"/>
<path fill="#CCCCCC" d="M7.6,12.2v16.2h4.7V12.2C10.1,10.8,8.3,11.7,7.6,12.2z"/>
<path fill="#CCCCCC" d="M1.6,12.3v16h4V12.2C4.5,11.4,3.3,11,1.6,12.3z"/>
<path fill="#CCCCCC" d="M14.2,12.2v16.2h4.2v-16C16.7,11,15.5,11.4,14.2,12.2z"/>
<path d="M10,0L0,10.3V30h20V10.3L10,0z M5.6,28.4h-4v-16c1.7-1.3,2.9-1,4-0.1V28.4z M12.4,28.4H7.6V12.2c0.6-0.5,2.5-1.4,4.7,0V28.4
	z M6.6,11.1c-1.7-1.3-3.2-1.2-3.9-1l4.7-4.8h5.4l4.6,4.8c-1-0.2-1.8-0.1-2.5,0.2c-0.7,0.2-1,0.6-1.4,0.8C11.2,9.2,8.1,9.8,6.6,11.1z
	 M18.4,28.4h-4.2V12.2c1.3-0.8,2.5-1.2,4.2,0.1V28.4z"/>
</svg>
