<?xml version="1.0" encoding="utf-8"?>
<!-- Generator: Adobe Illustrator 22.0.1, SVG Export Plug-In . SVG Version: 6.00 Build 0)  -->
<svg version="1.1" id="Layer_1" xmlns="http://www.w3.org/2000/svg" xmlns:xlink="http://www.w3.org/1999/xlink" x="0px" y="0px"
	 viewBox="0 0 32 32" style="enable-background:new 0 0 32 32;" xml:space="preserve">
<style type="text/css">
	.st0{fill:#323333;}
</style>
<title>LBB_Icon</title>
<g>
	<path class="st0" d="M10.1,25.6l0.7-0.5l0.7,0.5v-1.6h-1.4V25.6z M14.3,18.5c0-0.8-0.5-1.2-0.8-1.3c0.3-0.1,0.7-0.6,0.7-1.2
		c0-1-0.7-1.7-1.8-1.7h-2.4v5.9h2.5C13.6,20.2,14.3,19.6,14.3,18.5L14.3,18.5z M11.2,15.4h1.1c0.5,0,0.8,0.3,0.8,0.7
		c0,0.4-0.3,0.7-0.8,0.7h-1.1V15.4z M11.2,19.2v-1.5h1.2c0.5,0,0.8,0.3,0.8,0.7s-0.2,0.7-0.8,0.7H11.2z M10.1,6.9v6h1.2V8h9.5v13.6
		H10.1v1.2h11.8V6.9H10.1z"/>
	<path class="st0" d="M11.5,25.7l-0.8-0.6L10,25.7v-1.9h1.5V25.7z M10.1,24v1.4l0.6-0.5l0.6,0.5V24H10.1z M21.9,22.9H10v-1.3h10.7
		V8.1h-9.4V13H10V6.8h12V22.9z M10.1,22.7h11.7V7H10.1v5.9h1V8h9.7v13.8H10.1V22.7z M12.5,20.3H10v-6.1h2.4c1.2,0,1.9,0.7,1.9,1.7
		c0,0.6-0.3,1-0.6,1.2c0.3,0.2,0.7,0.6,0.7,1.3l0,0C14.4,19.6,13.7,20.3,12.5,20.3z M10.1,20.2h2.4c1.1,0,1.7-0.6,1.7-1.6l0,0
		c0-0.7-0.4-1.1-0.8-1.2l-0.1-0.1l0.1-0.1c0.2-0.1,0.7-0.5,0.7-1.2c0-0.5-0.2-0.9-0.5-1.2c-0.3-0.3-0.8-0.4-1.3-0.4h-2.3V20.2z
		 M12.4,19.3h-1.3v-1.6h1.3c0.3,0,0.5,0.1,0.6,0.2c0.1,0.1,0.2,0.3,0.2,0.6C13.3,19,12.9,19.3,12.4,19.3z M11.3,19.1h1.1
		c0.3,0,0.7-0.2,0.7-0.7c0-0.4-0.3-0.6-0.7-0.6h-1.1V19.1z M12.3,16.8h-1.2v-1.5h1.2c0.5,0,0.8,0.3,0.8,0.8
		C13.2,16.5,12.9,16.8,12.3,16.8z M11.3,16.7h1.1c0.4,0,0.7-0.2,0.7-0.6c0-0.4-0.3-0.6-0.7-0.6h-1.1V16.7z"/>
</g>
</svg>
