<?xml version="1.0" encoding="UTF-8"?>
<!DOCTYPE svg  PUBLIC '-//W3C//DTD SVG 1.1//EN'  'http://www.w3.org/Graphics/SVG/1.1/DTD/svg11.dtd'>
<svg enable-background="new 0 0 20 30" version="1.1" viewBox="0 0 20 30" xml:space="preserve" xmlns="http://www.w3.org/2000/svg">
	<path d="m17.4 9.8c-1-0.2-1.8-0.1-2.5 0.1s-1 0.5-1.4 0.8c-2.3-1.8-5.4-1.3-6.9 0-1.6-1.2-3.1-1.1-3.9-0.9l4.7-4.7h5.4l4.6 4.7z" fill="#EACFAF"/>
	<path d="m7.6 12.2v16.2h4.7v-16.2c-2.2-1.4-4-0.5-4.7 0z" fill="#EACFAF"/>
	<path d="m1.6 12.3v16h4v-16.1c-1.1-0.8-2.3-1.2-4 0.1z" fill="#EACFAF"/>
	<path d="m14.2 12.2v16.2h4.2v-16c-1.7-1.4-2.9-1-4.2-0.2z" fill="#EACFAF"/>
	<path d="m10 0l-10 10.3v19.7h20v-19.7l-10-10.3zm-4.4 28.4h-4v-16c1.7-1.3 2.9-1 4-0.1v16.1zm6.8 0h-4.8v-16.2c0.6-0.5 2.5-1.4 4.7 0v16.2zm-5.8-17.6c-1.6-1.3-3.1-1.2-3.9-1l4.7-4.7h5.4l4.6 4.7c-1-0.2-1.8-0.1-2.5 0.1s-1 0.5-1.4 0.8c-2.3-1.7-5.4-1.2-6.9 0.1zm11.8 17.6h-4.2v-16.2c1.3-0.8 2.5-1.2 4.2 0.1v16.1z"/>
</svg>
