<?xml version="1.0" encoding="utf-8"?>
<!-- Generator: Adobe Illustrator 16.0.0, SVG Export Plug-In . SVG Version: 6.00 Build 0)  -->
<!DOCTYPE svg PUBLIC "-//W3C//DTD SVG 1.1//EN" "http://www.w3.org/Graphics/SVG/1.1/DTD/svg11.dtd">
<svg version="1.1" id="Layer_1" xmlns="http://www.w3.org/2000/svg" xmlns:xlink="http://www.w3.org/1999/xlink" x="0px" y="0px"
	 width="20px" height="30px" viewBox="0 0 20 30" enable-background="new 0 0 20 30" xml:space="preserve">
<rect x="0.833" y="10.667" fill="#FFCE00" width="18.167" height="18.167"/>
<path d="M10,0L0,9.987V30h20V10.031L10,0z M6,28H2V12.947c0-1.104,0.897-2,2-2s2,0.896,2,2V28z M12,28H8V12.947c0-1.104,0.897-2,2-2
	c1.104,0,2,0.896,2,2V28z M18,28h-4V12.947c0-1.104,0.896-2,2-2s2,0.896,2,2V28z M16,8.947c-1.2,0-2.268,0.542-3,1.382
	c-0.732-0.84-1.8-1.382-3-1.382s-2.267,0.542-3,1.382c-0.733-0.84-1.8-1.382-3-1.382c-0.044,0-0.085,0.008-0.129,0.01l3.434-3.434
	h5.39l3.435,3.434C16.085,8.955,16.044,8.947,16,8.947z"/>
<path fill="#D59E5D" d="M16,8.947c-1.2,0-2.268,0.542-3,1.382c-0.732-0.84-1.8-1.382-3-1.382s-2.267,0.542-3,1.382
	c-0.733-0.84-1.8-1.382-3-1.382c-0.044,0-0.085,0.008-0.129,0.01l3.434-3.434h5.39l3.435,3.434C16.085,8.955,16.044,8.947,16,8.947z
	"/>
</svg>
